<svg id="Layer_1" data-name="Layer 1" xmlns="http://www.w3.org/2000/svg" viewBox="0 0 1242.57 1322.29"><defs><style>.cls-1{fill:#283c63;}.cls-2{fill:#ff5252;}</style></defs><title>favicon_v1</title><path class="cls-1" d="M1083.88,1184.9a97.1,97.1,0,0,0-31.18-10.34L987.23,1241a45.41,45.41,0,0,0,0,64.22L1049.9,1369a116.51,116.51,0,0,0,32.39-8l-74-77a15.62,15.62,0,0,1,0-22.08Z" transform="translate(-378.72 -338.85)"/><path class="cls-1" d="M1179.14,1358.68a97.1,97.1,0,0,0,31.18,10.34l65.47-66.4a45.41,45.41,0,0,0,0-64.22l-62.67-63.83a116.6,116.6,0,0,0-32.39,8l74,77a15.6,15.6,0,0,1,0,22.08Z" transform="translate(-378.72 -338.85)"/><rect class="cls-1" x="1034.94" y="1258.75" width="196.76" height="25.5" transform="translate(-691.9 1831.96) rotate(-80.16)"/><path class="cls-2" d="M1437.93,369.62c-4,0-7.26,0-10,0,1.87,1.32,3.78,2.56,5.63,3.9,1.34-1.18,2.79-2.43,4.42-3.87" transform="translate(-378.72 -338.85)"/><path class="cls-2" d="M1285.3,535.72c129.16,61.51,215.27,142.19,243,189.51-15.37-84.93-106.11-171.67-156.85-201.81-27.68-30.75,29.91-89.29,56.48-153.82,0,0-133.37,107.7-142.59,166.12" transform="translate(-378.72 -338.85)"/><path class="cls-2" d="M843.92,565.74c-2.95,7.43,6,13.85,6,13.85l39.83-17.16s-42.84-4.12-45.8,3.31" transform="translate(-378.72 -338.85)"/><path class="cls-2" d="M1230.68,919.49l-.44,0a153.87,153.87,0,0,0-17.35,2.09c-2.56.44-5.17.93-7.93,1.5-3.82.8-7.54,1.78-11.23,2.85-34.91,9.6-63.8,28.9-86.29,58.38-2.73,3.6-5.63,7.1-9.2,11.57-8.66-50.7,9.77-92.85,67.89-154.53C1094.51,821.73,1019,830.19,949.87,800a112.94,112.94,0,0,1,15.8-28.7c15.36-20.26,36.53-34.08,59.75-46-30.73,5.47-56.36,18.57-77.92,39A187.32,187.32,0,0,0,921,796C827,747.14,753.36,677.85,698.84,585.77c48.31-32.12,99-55.49,152.62-72.66,86.34-27.61,174.67-36.65,264.75-26.17,15.1,1.77,25.48-1.91,36.87-12.31,74.34-68,162.42-102.58,263.12-105,3.42-.08,6.84-.07,11.68-.05-116.33-81.75-286.2,25.14-324,27.74-108.6,7.47-219.38,9.17-326.17,32.37C722.86,441.62,668.05,456.8,617,480.5c-51.45,23.91-117.17,64.25-117.58,129-.54,94.39,74.78,169.21,142.15,225.41,163.74,136.57,342.29,205,547.74,251.29,101.51,22.88,240.4,86.67,220.2,204.86-19.4,113.56-194.53,180.73-310.91,194.21-15.17,1.76-133.12,21.41-139.48.53-19.5-64-34.6-131.37-70.13-188.92-41.71-67.58-117-92.23-188.23-119.29,40.42,48.2,74.15,143.47,74.23,209.57.21,139.42-156.39,188.28-265.58,215.89-40.47,10.24-88.35,31-130.7,22,93.71,19.87,188.66,39.17,284.39,35.75,59.11-2.09,118.65-13.45,172.92-37.49,49.59-22,96.2-94.16,148.07-67.07,201,105,526,69.84,613.77-151.6,99.07-249.89-133.9-503.45-367.19-485.1" transform="translate(-378.72 -338.85)"/></svg>