<svg width="94" height="100" viewBox="0 0 94 100" fill="none" xmlns="http://www.w3.org/2000/svg">
<path d="M53.3336 63.9733C52.5978 63.581 51.8008 63.3165 50.9764 63.1912L46.0261 68.212C45.707 68.5309 45.454 68.9094 45.2813 69.3261C45.1086 69.7428 45.0198 70.1894 45.0198 70.6405C45.0198 71.0915 45.1086 71.5382 45.2813 71.9549C45.454 72.3715 45.707 72.7501 46.0261 73.069L50.765 77.896C51.6057 77.8135 52.4303 77.6112 53.2138 77.2953L47.6204 71.4817C47.5105 71.3724 47.4233 71.2424 47.3638 71.0992C47.3043 70.9561 47.2737 70.8026 47.2737 70.6475C47.2737 70.4925 47.3043 70.339 47.3638 70.1959C47.4233 70.0527 47.5105 69.9227 47.6204 69.8134L53.3336 63.9733Z" fill="#283C63"/>
<path d="M60.5389 77.1156C61.2748 77.5074 62.0718 77.7713 62.8961 77.896L67.8465 72.8752C68.1655 72.5563 68.4185 72.1777 68.5912 71.761C68.7639 71.3443 68.8527 70.8977 68.8527 70.4467C68.8527 69.9956 68.7639 69.549 68.5912 69.1323C68.4185 68.7156 68.1655 68.337 67.8465 68.0182L63.1075 63.1929C62.2666 63.2747 61.4419 63.477 60.6587 63.7936L66.2521 69.6072C66.3621 69.7167 66.4493 69.8468 66.5088 69.9901C66.5683 70.1334 66.599 70.2871 66.599 70.4423C66.599 70.5974 66.5683 70.7511 66.5088 70.8944C66.4493 71.0377 66.3621 71.1678 66.2521 71.2773L60.5389 77.1156Z" fill="#283C63"/>
<path d="M57.39 63.0215L54.8472 77.6819L56.7461 78.0113L59.2889 63.3509L57.39 63.0215Z" fill="#283C63"/>
<path d="M68.5652 14.882C78.3339 19.5346 84.8451 25.6283 86.9398 29.2134C85.777 22.7902 78.9152 16.2314 75.0783 13.9518C72.9836 11.6263 77.3403 7.1992 79.3486 2.32458C79.3486 2.32458 69.2629 10.4671 68.5652 14.8855" fill="#FF5252"/>
<path d="M35.1882 17.1528C34.9662 17.7147 35.6409 18.1992 35.6409 18.1992L38.6517 16.8973C38.6517 16.8973 35.4119 16.5855 35.1882 17.1475" fill="#FF5252"/>
<path d="M64.4323 43.9022H64.3989C63.9587 43.9291 63.5205 43.9814 63.0864 44.059C62.8926 44.0925 62.6953 44.1295 62.4874 44.1735C62.1985 44.2334 61.9166 44.3074 61.6383 44.3884C59.0312 45.0858 56.735 46.6411 55.12 48.8032C54.9139 49.0763 54.6936 49.3318 54.4241 49.6841C53.7688 45.8489 55.1623 42.662 59.5577 37.9988C54.1422 36.5119 48.4308 37.1514 43.2039 34.8665C43.495 34.0887 43.8979 33.3575 44.4001 32.696C45.561 31.1634 47.1624 30.1187 48.917 29.2132C46.7003 29.5827 44.6465 30.6123 43.0242 32.1675C42.2702 32.8894 41.599 33.693 41.0229 34.5635C33.9091 30.8639 28.3387 25.6316 24.2216 18.6694C27.7926 16.3071 31.6775 14.4575 35.7625 13.1747C42.2155 11.0814 49.0443 10.406 55.7824 11.1945C56.924 11.3284 57.7097 11.0501 58.5711 10.2644C64.1927 5.12548 70.8537 2.51289 78.4678 2.32439C78.7267 2.32439 78.9857 2.32439 79.3486 2.32439C70.5507 -3.8574 57.7062 4.22526 54.8434 4.42257C46.6321 4.98807 38.2535 5.11492 30.1796 6.86957C26.0344 7.77156 21.8891 8.91842 18.0239 10.7118C14.1341 12.5193 9.16434 15.5706 9.13263 20.4646C9.09211 27.603 14.7877 33.2598 19.879 37.5108C32.262 47.8378 45.7636 53.0137 61.2983 56.5124C68.9757 58.2424 79.479 63.0659 77.9516 72.0048C76.4841 80.5913 63.2397 85.6703 54.44 86.6903C53.2931 86.8242 44.3736 88.3093 43.8927 86.7308C42.4181 81.8932 41.2748 76.7966 38.5882 72.4452C35.4348 67.3363 29.7445 65.4707 24.3537 63.4236C27.4102 67.0685 29.9612 74.2739 29.9682 79.2788C29.9841 89.8208 18.142 93.5169 9.88488 95.6045C6.82481 96.3779 3.20453 97.9458 0 97.2658C7.08731 98.7685 14.2698 100.229 21.5068 99.97C25.9762 99.8114 30.4791 98.9535 34.5821 97.1354C38.3328 95.4741 41.8579 90.0146 45.7812 92.0635C60.9759 99.9999 85.5551 97.3486 92.1931 80.5984C99.6856 61.7024 82.0687 42.5281 64.427 43.9145" fill="#FF5252"/>
</svg>
