<svg width="319" height="80" viewBox="0 0 319 80" fill="none" xmlns="http://www.w3.org/2000/svg">
<g clip-path="url(#clip0_2029_2527)">
<path d="M98.3821 38.955C100.88 38.955 102.327 38.9167 102.725 38.8402C103.12 38.7631 103.317 38.4565 103.317 37.9169C103.317 37.2711 103.041 36.8669 102.488 36.7007C101.935 36.5346 100.564 36.4523 98.377 36.4523C94.0374 36.4523 91.3017 36.1371 90.17 35.5068C89.0383 34.8764 88.473 33.3176 88.4742 30.8303C88.4742 28.5315 89.2165 27.0589 90.7011 26.4125C91.8316 25.9203 94.3503 25.6748 98.2571 25.6759C101.74 25.6759 103.946 25.7713 104.876 25.962C107.061 26.4005 108.153 28.258 108.153 31.5343H102.963C102.963 30.635 102.766 30.1108 102.373 29.967C101.981 29.8231 100.618 29.7477 98.2793 29.7477C95.9411 29.7477 94.581 29.7888 94.2195 29.8727C93.8581 29.9567 93.6765 30.277 93.6765 30.8303C93.6765 31.4144 93.9849 31.7947 94.5998 31.966C95.2148 32.1373 96.4841 32.2281 98.3838 32.2281C102.666 32.2281 105.425 32.5656 106.659 33.2405C107.894 33.9154 108.51 35.4725 108.509 37.9118C108.509 40.1649 107.817 41.6067 106.433 42.2371C105.234 42.7773 102.543 43.0468 98.3598 43.0456C95.1314 43.0456 93.0364 42.9725 92.0749 42.8264C90.5903 42.6037 89.5808 42.0898 89.0463 41.2847C88.5119 40.4796 88.2446 39.0715 88.2446 37.0604H93.447C93.447 38.0094 93.6508 38.5593 94.0585 38.7186C94.4662 38.8779 95.9068 38.9533 98.3838 38.9533" fill="white"/>
<path d="M112.521 25.9226H117.723V31.8273H128.933V25.9226H134.135V42.7836H128.933V36.1988H117.723V42.7836H112.521V25.9226Z" fill="white"/>
<path d="M145.751 25.8987H154.678L163.041 42.763H156.973L155.37 39.9486H145.07L143.456 42.763H137.389L145.751 25.8987ZM150.618 29.6947H149.818L147.014 35.5771H153.415L150.618 29.6947Z" fill="white"/>
<path d="M165.843 25.8746H180.964C182.816 25.8746 184.129 26.2138 184.904 26.8921C185.735 27.6287 186.151 28.9278 186.151 30.7892C186.151 32.235 185.979 33.3039 185.637 33.9959C185.294 34.688 184.691 35.207 183.826 35.553C184.763 35.9687 185.385 36.3798 185.693 36.7864C186.002 37.1929 186.156 37.9238 186.156 38.979V42.7613H180.966V39.7379C180.978 39.3382 180.851 38.9466 180.608 38.6296C180.308 38.231 179.858 38.0311 179.258 38.03H171.046V42.7596H165.845L165.843 25.8746ZM171.044 30.2479V33.6739H179.383C179.945 33.6739 180.347 33.5523 180.594 33.3056C180.84 33.0589 180.964 32.6204 180.964 31.9677C180.964 31.3151 180.837 30.8748 180.584 30.623C180.33 30.3712 179.929 30.2496 179.384 30.2496L171.044 30.2479Z" fill="white"/>
<path d="M191.111 25.9003H196.314V31.8049H199.025L204.906 25.9003H212.07L203.626 33.9273L213.152 42.7389H205.61L199.025 36.1765H196.314V42.7612H191.111V25.9003Z" fill="white"/>
<path d="M222.402 25.5664L217.156 44.8615H214.538L219.785 25.5664H222.402Z" fill="white"/>
<path d="M225.068 27.0053C224.091 27.8618 223.603 30.2959 223.603 34.3077C223.603 38.3367 224.11 40.792 225.124 41.6736C226.138 42.5552 229.072 42.9949 233.925 42.9926C238.778 42.9926 241.761 42.5929 242.876 41.7935C243.821 41.1163 244.294 39.2743 244.294 36.2674H239.094C239.094 37.2952 238.808 37.945 238.237 38.2168C237.666 38.4886 236.229 38.6273 233.925 38.633C231.389 38.633 229.905 38.4349 229.472 38.0386C229.039 37.6424 228.819 36.4062 228.812 34.33C228.812 32.2322 229.032 30.9868 229.472 30.594C229.911 30.2011 231.396 30.0053 233.925 30.0064C236.193 30.0064 237.651 30.1715 238.297 30.5015C238.809 30.771 239.064 31.3945 239.064 32.3721H244.289C244.289 29.3812 243.801 27.5397 242.824 26.8477C241.71 26.0403 238.741 25.6366 233.917 25.6366C229.066 25.6366 226.113 26.0934 225.059 27.007" fill="white"/>
<mask id="mask0_2029_2527" style="mask-type:luminance" maskUnits="userSpaceOnUse" x="223" y="25" width="22" height="18">
<path d="M225.068 27.007C224.091 27.8601 223.603 30.2936 223.603 34.3077C223.603 38.3219 224.11 40.7771 225.124 41.6736C226.139 42.5541 229.073 42.9943 233.925 42.9943C238.778 42.9943 241.761 42.5946 242.876 41.7952C243.821 41.118 244.294 39.2766 244.294 36.2708H239.092C239.092 37.2986 238.806 37.9479 238.235 38.2185C237.664 38.4892 236.228 38.6273 233.925 38.633C231.389 38.633 229.905 38.4349 229.472 38.0386C229.039 37.6424 228.819 36.4067 228.812 34.3317C228.812 32.2316 229.032 30.9857 229.472 30.594C229.911 30.2023 231.396 30.0064 233.925 30.0064C236.193 30.0064 237.65 30.1715 238.295 30.5015C238.808 30.7687 239.064 31.3922 239.064 32.3721H244.289C244.289 29.3812 243.801 27.5397 242.824 26.8477C241.711 26.0392 238.742 25.6355 233.917 25.6366C229.066 25.6366 226.113 26.0934 225.059 27.007" fill="white"/>
</mask>
<g mask="url(#mask0_2029_2527)">
<path d="M244.294 25.6351H223.603V42.9928H244.294V25.6351Z" fill="white"/>
</g>
<mask id="mask1_2029_2527" style="mask-type:luminance" maskUnits="userSpaceOnUse" x="248" y="25" width="23" height="18">
<path d="M254.117 38.0968C253.62 37.7393 253.372 36.4831 253.372 34.3282C253.372 32.1504 253.62 30.8851 254.117 30.5322C254.613 30.1793 256.357 30.0029 259.346 30.0029C262.321 30.0029 264.057 30.1793 264.554 30.5322C265.051 30.8851 265.299 32.1504 265.299 34.3282C265.299 36.4797 265.051 37.7359 264.554 38.0968C264.057 38.4576 262.314 38.6364 259.324 38.6329C256.349 38.6329 254.613 38.4542 254.117 38.0968ZM249.635 26.9623C248.659 27.7617 248.171 30.217 248.171 34.3282C248.171 37.3191 248.328 39.2799 248.644 40.2106C249.051 41.4234 250.028 42.2108 251.573 42.5728C252.805 42.8503 255.389 42.9891 259.324 42.9891C264.706 42.9891 267.931 42.5585 268.999 41.6975C269.993 40.8889 270.489 38.4337 270.488 34.3316C270.487 30.2296 269.983 27.7646 268.977 26.9366C267.908 26.0699 264.69 25.6359 259.324 25.6348C253.934 25.6348 250.704 26.0762 249.635 26.9589" fill="white"/>
</mask>
<g mask="url(#mask1_2029_2527)">
<path d="M270.488 25.6348H248.169V42.9925H270.488V25.6348Z" fill="white"/>
</g>
<mask id="mask2_2029_2527" style="mask-type:luminance" maskUnits="userSpaceOnUse" x="273" y="25" width="23" height="18">
<path d="M278.966 30.248H287.443C288.558 30.248 289.313 30.5335 289.709 31.1045C290.106 31.6755 290.304 32.7507 290.304 34.3301C290.304 35.89 290.106 36.9526 289.709 37.5179C289.313 38.0832 288.558 38.3687 287.443 38.3744H278.966V30.248ZM273.763 25.8765V42.7391H288.324C291.301 42.7391 293.262 42.1464 294.208 40.961C295.07 39.8784 295.5 37.6687 295.499 34.3318C295.499 30.9777 295.057 28.748 294.172 27.6426C293.233 26.4663 291.284 25.8776 288.324 25.8765H273.763Z" fill="white"/>
</mask>
<g mask="url(#mask2_2029_2527)">
<path d="M295.494 25.8765H273.763V42.7374H295.494V25.8765Z" fill="white"/>
</g>
<mask id="mask3_2029_2527" style="mask-type:luminance" maskUnits="userSpaceOnUse" x="300" y="25" width="19" height="18">
<path d="M300.188 25.8765V42.7614H318.377V38.6776H305.39V36.36H317.787V32.3002H305.39V29.9585H318.377V25.8765H300.188Z" fill="white"/>
</mask>
<g mask="url(#mask3_2029_2527)">
<path d="M318.375 25.8765H300.187V42.7614H318.375V25.8765Z" fill="white"/>
</g>
<path d="M92.5394 52.7053V63.0347H91.3403V52.7053H92.5394Z" fill="white"/>
<path d="M93.9146 53.8068V52.7053H101.486V53.8068H98.2998V63.0347H97.1007V53.8119L93.9146 53.8068Z" fill="white"/>
<path d="M106.496 60.8675C106.831 61.2225 107.241 61.4986 107.695 61.676C108.113 61.8434 108.559 61.9311 109.009 61.9347C109.407 61.9387 109.801 61.8636 110.169 61.7137C110.504 61.5817 110.799 61.3651 111.025 61.0851C111.242 60.8047 111.356 60.458 111.348 60.1035C111.358 59.7464 111.236 59.3981 111.005 59.1254C110.756 58.8455 110.458 58.6134 110.126 58.4402C109.766 58.2449 109.384 58.0577 108.98 57.8784C108.647 57.7276 108.314 57.5683 107.983 57.4004C107.664 57.2402 107.363 57.0467 107.084 56.8232C106.82 56.61 106.602 56.3461 106.442 56.0472C106.273 55.7155 106.19 55.3468 106.2 54.9748C106.186 54.4601 106.341 53.9549 106.64 53.5359C106.946 53.1281 107.356 52.8108 107.827 52.6178C108.354 52.3982 108.92 52.2892 109.491 52.2974C109.914 52.3002 110.337 52.3496 110.75 52.4448C111.199 52.5491 111.636 52.7048 112.05 52.909L111.562 53.9368C111.25 53.7528 110.914 53.6138 110.563 53.5239C110.235 53.4388 109.898 53.3951 109.559 53.3937C109.032 53.378 108.511 53.5168 108.062 53.7929C107.9 53.8984 107.762 54.0369 107.658 54.1994C107.553 54.3619 107.484 54.5446 107.455 54.7357C107.426 54.9267 107.438 55.1217 107.49 55.3079C107.541 55.4941 107.632 55.6672 107.755 55.8159C107.99 56.0727 108.27 56.2846 108.581 56.4412C108.924 56.6216 109.286 56.7986 109.669 56.9722C110.011 57.1275 110.354 57.2925 110.697 57.4672C111.031 57.6358 111.347 57.839 111.639 58.0736C111.919 58.2972 112.152 58.5744 112.324 58.889C112.504 59.2363 112.593 59.6235 112.583 60.0145C112.589 60.565 112.424 61.1038 112.11 61.5561C111.784 62.0205 111.341 62.3909 110.827 62.6302C110.249 62.899 109.619 63.0331 108.982 63.0225C108.436 63.0195 107.895 62.9287 107.379 62.7535C106.832 62.5682 106.324 62.2862 105.878 61.921L106.496 60.8675Z" fill="white"/>
<path d="M114.039 59.5879C114.029 58.9648 114.19 58.3508 114.505 57.8132C114.811 57.2968 115.25 56.8729 115.778 56.5867C116.347 56.2929 116.978 56.1395 117.619 56.1395C118.26 56.1395 118.891 56.2929 119.461 56.5867C119.987 56.8739 120.427 57.2976 120.733 57.8132C121.038 58.3549 121.198 58.9657 121.198 59.587C121.198 60.2083 121.038 60.8191 120.733 61.3608C120.427 61.8764 119.987 62.3001 119.461 62.5873C118.892 62.8822 118.26 63.0362 117.619 63.0362C116.978 63.0362 116.347 62.8822 115.778 62.5873C115.25 62.3011 114.811 61.8772 114.505 61.3608C114.19 60.8238 114.029 60.2104 114.039 59.5879ZM115.209 59.5879C115.202 60.0217 115.31 60.4496 115.522 60.8281C115.726 61.1852 116.022 61.4811 116.379 61.6846C116.759 61.8903 117.185 61.998 117.617 61.998C118.05 61.998 118.476 61.8903 118.856 61.6846C119.213 61.4813 119.509 61.1854 119.712 60.8281C119.918 60.4464 120.026 60.0197 120.026 59.5861C120.026 59.1526 119.918 58.7259 119.712 58.3442C119.509 57.9867 119.213 57.6908 118.856 57.4877C118.476 57.282 118.05 57.1743 117.617 57.1743C117.185 57.1743 116.759 57.282 116.379 57.4877C116.022 57.691 115.726 57.9869 115.522 58.3442C115.312 58.7242 115.206 59.1534 115.216 59.5879H115.209Z" fill="white"/>
<path d="M122.504 57.1778V56.15H123.64V54.9047C123.627 54.6144 123.672 54.3244 123.771 54.0514C123.871 53.7783 124.023 53.5275 124.219 53.3133C124.413 53.1128 124.646 52.9554 124.905 52.8512C125.164 52.747 125.441 52.6984 125.72 52.7086C126.203 52.7014 126.676 52.8564 127.061 53.1489L126.621 54.0978C126.525 53.9883 126.408 53.9 126.276 53.8387C126.144 53.7775 126.001 53.7445 125.856 53.7421C125.71 53.7397 125.566 53.7678 125.432 53.8247C125.298 53.8815 125.178 53.9658 125.079 54.0722C124.874 54.3093 124.767 54.6155 124.779 54.9287V56.1534H126.624V57.1812H124.776V63.0345H123.64V57.1829L122.504 57.1778Z" fill="white"/>
<path d="M129.298 56.1467V54.2983H130.434V56.1501H132.306V57.1779H130.434V60.7752C130.434 61.5974 130.815 62.0085 131.576 62.0085C131.7 62.0082 131.823 61.9978 131.945 61.9777C132.07 61.9587 132.191 61.9217 132.306 61.868V62.8547C132.169 62.911 132.028 62.9551 131.883 62.9866C131.696 63.0253 131.505 63.0437 131.314 63.0414C130.663 63.0414 130.164 62.8547 129.817 62.4813C129.47 62.1079 129.299 61.5763 129.303 60.8865V57.183H128.167V56.1552L129.298 56.1467Z" fill="white"/>
<path d="M133.544 56.1465H134.744L136.457 61.2598L138.17 56.1465H139.381L141.116 61.3214L142.843 56.1533H144.006L141.7 63.0344H140.537L140.551 62.9916L138.776 57.6933L137.02 62.9436L137.047 63.0344H135.848L133.544 56.1465Z" fill="white"/>
<path d="M145.301 60.847C145.29 60.5289 145.358 60.213 145.498 59.927C145.638 59.641 145.845 59.3935 146.102 59.206C146.637 58.7994 147.358 58.5961 148.266 58.5961C148.88 58.5961 149.491 58.6915 150.076 58.8788V58.8068C150.087 58.5811 150.046 58.3561 149.957 58.1484C149.868 57.9407 149.733 57.7559 149.563 57.6077C149.22 57.3165 148.757 57.1709 148.175 57.1709C147.503 57.1916 146.845 57.3631 146.248 57.6728L145.835 56.8163C146.235 56.601 146.657 56.4287 147.094 56.3025C147.489 56.1974 147.896 56.1455 148.305 56.1483C149.187 56.1483 149.89 56.4115 150.416 56.938C150.941 57.4644 151.204 58.169 151.204 59.0518V63.0345H150.176L150.114 61.8851C149.885 62.2498 149.562 62.5458 149.179 62.7416C148.753 62.9527 148.283 63.0579 147.808 63.0482C147.062 63.0482 146.455 62.8461 145.988 62.4418C145.761 62.2448 145.581 61.999 145.462 61.7229C145.343 61.4468 145.288 61.1474 145.301 60.847ZM148.37 59.6291C147.772 59.6291 147.306 59.7359 146.973 59.9494C146.828 60.0395 146.707 60.163 146.619 60.3097C146.532 60.4564 146.482 60.6218 146.472 60.7921C146.462 60.9624 146.494 61.1325 146.563 61.2882C146.633 61.4438 146.74 61.5804 146.873 61.6864C147.183 61.9105 147.56 62.0222 147.942 62.0033C148.32 62.0093 148.694 61.9216 149.03 61.748C149.34 61.5897 149.603 61.3536 149.794 61.0629C149.982 60.7749 150.081 60.4374 150.076 60.0933V59.9066C149.526 59.724 148.95 59.6303 148.37 59.6291Z" fill="white"/>
<path d="M153.276 63.0345V56.1517H154.304L154.373 57.4125C154.593 57.0408 154.896 56.7257 155.26 56.4926C155.651 56.2543 156.104 56.1352 156.562 56.15C156.767 56.15 156.983 56.15 157.209 56.15L157.038 57.3149C156.838 57.2288 156.622 57.1823 156.404 57.1778C156.122 57.1643 155.84 57.2196 155.584 57.339C155.328 57.4583 155.104 57.6382 154.933 57.863C154.573 58.3527 154.388 58.9496 154.409 59.5571V63.0345H153.276Z" fill="white"/>
<path d="M164.93 59.4801V59.9101H159.092C159.196 60.5019 159.511 61.0361 159.978 61.4141C160.46 61.8089 161.068 62.018 161.691 62.0034C162.093 61.9982 162.491 61.9246 162.868 61.7858C163.289 61.6364 163.674 61.3987 163.997 61.0886L164.665 61.9451C164.227 62.3262 163.718 62.6173 163.168 62.8016C162.702 62.9527 162.215 63.0318 161.725 63.0363C161.038 63.0485 160.358 62.8946 159.743 62.5875C159.185 62.3081 158.715 61.8801 158.385 61.3507C158.052 60.8112 157.881 60.1876 157.892 59.5538C157.882 58.9377 158.042 58.3307 158.354 57.7997C158.658 57.2874 159.096 56.8671 159.62 56.5835C160.18 56.2943 160.801 56.1423 161.432 56.1399C162.062 56.1375 162.684 56.2849 163.246 56.5698C163.757 56.8455 164.183 57.2553 164.478 57.7552C164.783 58.2781 164.94 58.8746 164.93 59.4801ZM159.079 58.9474H163.745C163.654 58.4384 163.377 57.9816 162.967 57.6661C162.53 57.3307 161.991 57.1559 161.441 57.171C160.878 57.1557 160.326 57.3327 159.877 57.6729C159.461 57.9833 159.176 58.4379 159.079 58.9474Z" fill="white"/>
<path d="M170.283 60.8676C170.619 61.2221 171.028 61.4981 171.482 61.6761C171.9 61.8438 172.346 61.9316 172.796 61.9348C173.194 61.9387 173.588 61.8636 173.956 61.7138C174.291 61.582 174.586 61.3654 174.812 61.0852C175.03 60.805 175.144 60.4583 175.136 60.1036C175.146 59.7465 175.024 59.3983 174.793 59.1255C174.545 58.8458 174.248 58.6136 173.916 58.4403C173.557 58.245 173.175 58.0578 172.77 57.8785C172.435 57.7277 172.102 57.5684 171.772 57.4005C171.453 57.2403 171.152 57.0468 170.874 56.8233C170.61 56.6101 170.391 56.3463 170.23 56.0473C170.063 55.7152 169.98 55.3467 169.99 54.9749C169.976 54.46 170.13 53.9546 170.43 53.536C170.735 53.1275 171.146 52.81 171.618 52.6179C172.144 52.3985 172.709 52.2895 173.279 52.2975C173.704 52.3002 174.126 52.3496 174.54 52.4449C174.99 52.5492 175.426 52.7049 175.84 52.9091L175.352 53.9369C175.04 53.7529 174.704 53.6139 174.353 53.524C174.025 53.4389 173.687 53.3952 173.348 53.3938C172.821 53.3781 172.301 53.5168 171.852 53.793C171.69 53.8985 171.553 54.037 171.448 54.1995C171.343 54.362 171.274 54.5447 171.245 54.7358C171.217 54.9268 171.228 55.1218 171.28 55.308C171.332 55.4942 171.422 55.6673 171.546 55.816C171.781 56.0728 172.06 56.2847 172.371 56.4413C172.714 56.6217 173.076 56.7987 173.459 56.9723C173.802 57.1282 174.144 57.2926 174.487 57.4673C174.822 57.6359 175.138 57.8391 175.431 58.0737C175.711 58.2977 175.943 58.5748 176.116 58.8891C176.295 59.2365 176.384 59.6237 176.373 60.0146C176.38 60.5649 176.215 61.1037 175.902 61.5562C175.576 62.0206 175.133 62.391 174.619 62.6303C174.041 62.8991 173.411 63.0332 172.774 63.0226C172.228 63.0199 171.687 62.9291 171.171 62.7536C170.624 62.5691 170.116 62.287 169.67 61.9211L170.283 60.8676Z" fill="white"/>
<path d="M177.827 59.5881C177.817 58.9652 177.978 58.3515 178.291 57.8134C178.598 57.2973 179.038 56.8736 179.566 56.5869C180.135 56.2931 180.766 56.1398 181.406 56.1398C182.047 56.1398 182.678 56.2931 183.247 56.5869C183.774 56.8732 184.214 57.297 184.52 57.8134C184.825 58.3547 184.986 58.9657 184.986 59.5872C184.986 60.2087 184.825 60.8197 184.52 61.361C184.214 61.8774 183.774 62.3013 183.247 62.5875C182.678 62.8825 182.047 63.0364 181.406 63.0364C180.766 63.0364 180.135 62.8825 179.566 62.5875C179.038 62.3008 178.598 61.8771 178.291 61.361C177.977 60.8236 177.817 60.2104 177.827 59.5881ZM178.997 59.5881C178.99 60.0219 179.098 60.4498 179.311 60.8283C179.514 61.1856 179.81 61.4815 180.167 61.6848C180.548 61.8905 180.974 61.9982 181.406 61.9982C181.839 61.9982 182.265 61.8905 182.646 61.6848C183.003 61.481 183.299 61.1853 183.502 60.8283C183.708 60.4467 183.816 60.0199 183.816 59.5864C183.816 59.1528 183.708 58.7261 183.502 58.3444C183.299 57.9874 183.003 57.6915 182.646 57.488C182.265 57.2823 181.839 57.1745 181.406 57.1745C180.974 57.1745 180.548 57.2823 180.167 57.488C179.81 57.691 179.514 57.9869 179.311 58.3444C179.097 58.7238 178.989 59.153 178.997 59.5881Z" fill="white"/>
<path d="M187.876 52.4294V63.0346H186.706V52.4346L187.876 52.4294Z" fill="white"/>
<path d="M191.077 56.1465V59.8089C191.051 60.3861 191.244 60.9518 191.617 61.3934C191.792 61.5929 192.009 61.751 192.252 61.8565C192.496 61.9619 192.76 62.012 193.025 62.0032C193.392 62.0093 193.754 61.9126 194.07 61.724C194.376 61.5394 194.628 61.277 194.799 60.9634C194.982 60.6303 195.075 60.2554 195.068 59.8757V56.1465H196.204V63.0344H195.176L195.115 61.861C194.853 62.2318 194.506 62.5332 194.101 62.7389C193.697 62.9446 193.249 63.0484 192.795 63.0413C192.283 63.053 191.777 62.9197 191.337 62.6566C190.897 62.3935 190.54 62.0114 190.308 61.5544C190.055 61.062 189.929 60.5146 189.94 59.9613V56.1516L191.077 56.1465Z" fill="white"/>
<path d="M199.128 56.1467V54.2983H200.264V56.1501H202.136V57.1779H200.264V60.7752C200.264 61.5974 200.644 62.0085 201.406 62.0085C201.53 62.0082 201.653 61.9979 201.774 61.9777C201.9 61.9587 202.021 61.9217 202.136 61.868V62.8547C201.999 62.9112 201.857 62.9554 201.713 62.9866C201.526 63.0253 201.336 63.0437 201.146 63.0414C200.493 63.0414 199.994 62.8547 199.649 62.4813C199.304 62.1079 199.132 61.5763 199.135 60.8865V57.183H197.999V56.1552L199.128 56.1467Z" fill="white"/>
<path d="M203.844 53.4965C203.841 53.3916 203.859 53.287 203.897 53.1892C203.935 53.0914 203.993 53.0024 204.067 52.9278C204.14 52.8543 204.228 52.7966 204.325 52.7583C204.421 52.72 204.525 52.7019 204.629 52.7051C204.734 52.7017 204.839 52.7197 204.937 52.758C205.035 52.7962 205.124 52.854 205.199 52.9278C205.312 53.0393 205.389 53.182 205.42 53.3375C205.451 53.4931 205.435 53.6543 205.373 53.8006C205.312 53.9469 205.208 54.0714 205.076 54.1583C204.943 54.2451 204.787 54.2903 204.629 54.2879C204.524 54.291 204.421 54.2724 204.324 54.2332C204.227 54.1939 204.14 54.135 204.067 54.0601C203.994 53.9861 203.936 53.898 203.898 53.8012C203.859 53.7043 203.841 53.6006 203.844 53.4965ZM204.063 63.0293V56.1465H205.206V63.0345L204.063 63.0293Z" fill="white"/>
<path d="M206.927 59.5879C206.916 58.9649 207.077 58.351 207.392 57.8132C207.698 57.2972 208.137 56.8734 208.664 56.5867C209.234 56.2929 209.865 56.1395 210.506 56.1395C211.146 56.1395 211.778 56.2929 212.347 56.5867C212.874 56.8739 213.313 57.2976 213.62 57.8132C213.924 58.3549 214.084 58.9657 214.084 59.587C214.084 60.2083 213.924 60.8191 213.62 61.3608C213.313 61.8764 212.874 62.3001 212.347 62.5873C211.778 62.8822 211.147 63.0362 210.506 63.0362C209.865 63.0362 209.233 62.8822 208.664 62.5873C208.137 62.3006 207.698 61.8768 207.392 61.3608C207.077 60.8236 206.916 60.2103 206.927 59.5879ZM208.097 59.5879C208.091 60.0214 208.198 60.4491 208.409 60.8281C208.612 61.1852 208.908 61.4811 209.266 61.6846C209.646 61.8903 210.072 61.998 210.504 61.998C210.936 61.998 211.362 61.8903 211.742 61.6846C212.1 61.4813 212.396 61.1854 212.599 60.8281C212.805 60.4464 212.912 60.0197 212.912 59.5861C212.912 59.1526 212.805 58.7259 212.599 58.3442C212.396 57.9867 212.1 57.6908 211.742 57.4877C211.362 57.282 210.936 57.1743 210.504 57.1743C210.072 57.1743 209.646 57.282 209.266 57.4877C208.908 57.691 208.612 57.9869 208.409 58.3442C208.197 58.724 208.09 59.1531 208.097 59.5879Z" fill="white"/>
<path d="M215.806 63.0344V56.1516H216.833L216.895 57.3799C217.154 57.0045 217.496 56.6939 217.894 56.472C218.299 56.2506 218.755 56.1379 219.216 56.1448C219.729 56.1327 220.234 56.2657 220.674 56.5285C221.114 56.7912 221.471 57.1731 221.703 57.63C221.956 58.1231 222.082 58.6709 222.072 59.2248V63.0344H220.936V59.3721C220.963 58.7931 220.77 58.2254 220.396 57.7824C220.221 57.5839 220.004 57.4267 219.76 57.3219C219.517 57.217 219.253 57.1672 218.988 57.176C218.62 57.1706 218.258 57.2673 217.942 57.4552C217.637 57.6406 217.385 57.9021 217.212 58.2141C217.03 58.548 216.938 58.9234 216.945 59.3035V63.0344H215.806Z" fill="white"/>
<path d="M227.713 60.1566C227.705 59.7694 227.794 59.3863 227.97 59.0415C228.145 58.7141 228.377 58.4207 228.655 58.1747C228.943 57.9197 229.252 57.6904 229.58 57.4895C229.309 57.0856 229.079 56.6551 228.895 56.2048C228.731 55.815 228.645 55.3974 228.64 54.9748C228.633 54.5652 228.739 54.1615 228.946 53.8083C229.148 53.4694 229.438 53.1916 229.786 53.0049C230.157 52.8059 230.572 52.7051 230.993 52.712C231.285 52.6993 231.576 52.7464 231.849 52.8504C232.122 52.9544 232.37 53.1131 232.579 53.3167C232.778 53.515 232.934 53.752 233.038 54.0131C233.142 54.2741 233.191 54.5536 233.182 54.8344C233.186 55.4341 232.973 56.0151 232.583 56.4703C232.154 56.9736 231.645 57.402 231.075 57.7379C231.478 58.2073 231.907 58.6534 232.36 59.074C232.835 59.5183 233.32 59.9414 233.815 60.3433C234.114 59.9364 234.374 59.5022 234.592 59.0466C234.824 58.5682 235.022 58.0742 235.185 57.5683L236.225 57.8886C236.031 58.4438 235.802 58.9862 235.54 59.5125C235.283 60.0282 234.979 60.5191 234.632 60.9789C234.965 61.2358 235.287 61.4734 235.598 61.6915C235.908 61.9096 236.194 62.1054 236.454 62.279L235.85 63.1458C235.579 62.9597 235.283 62.7489 234.961 62.5137C234.64 62.2807 234.304 62.0255 233.957 61.7531C233.571 62.1343 233.127 62.4512 232.641 62.6919C232.151 62.9252 231.614 63.0424 231.072 63.0344C230.505 63.0379 229.944 62.9132 229.431 62.6696C228.939 62.4428 228.513 62.0944 228.193 61.6572C227.874 61.2224 227.705 60.6956 227.713 60.1566ZM233.129 61.1039C232.602 60.6757 232.08 60.2189 231.564 59.7335C231.066 59.2705 230.598 58.7768 230.162 58.2552C229.828 58.4657 229.531 58.7315 229.285 59.0415C229.053 59.344 228.932 59.7172 228.943 60.0984C228.936 60.451 229.039 60.7971 229.237 61.0885C229.437 61.3738 229.708 61.6013 230.024 61.748C230.354 61.9047 230.716 61.9844 231.082 61.981C231.458 61.9823 231.829 61.9016 232.17 61.7446C232.521 61.5812 232.844 61.3652 233.129 61.1039ZM229.791 55.0434C229.796 55.3601 229.86 55.6731 229.979 55.9667C230.116 56.3136 230.288 56.6455 230.493 56.9568C230.901 56.7157 231.276 56.422 231.608 56.0831C231.761 55.9307 231.881 55.7492 231.963 55.5495C232.044 55.3497 232.085 55.1357 232.083 54.92C232.091 54.7612 232.067 54.6023 232.014 54.4526C231.96 54.3029 231.877 54.1654 231.769 54.0481C231.675 53.9453 231.561 53.8632 231.434 53.8071C231.306 53.7511 231.168 53.7223 231.029 53.7226C230.869 53.725 230.711 53.7589 230.564 53.8224C230.417 53.8859 230.284 53.9777 230.173 54.0927C230.046 54.2154 229.946 54.3634 229.88 54.5273C229.815 54.6911 229.784 54.8669 229.791 55.0434Z" fill="white"/>
<path d="M241.401 53.8068V52.7053H248.973V53.8068H245.787V63.0347H244.588V53.8119L241.401 53.8068Z" fill="white"/>
<path d="M256.9 59.4801V59.9101H251.064C251.167 60.5021 251.482 61.0365 251.95 61.4141C252.432 61.8089 253.04 62.018 253.663 62.0034C254.064 61.9982 254.462 61.9246 254.839 61.7858C255.261 61.6364 255.646 61.3987 255.968 61.0886L256.636 61.9451C256.198 62.3259 255.69 62.6169 255.139 62.8016C254.673 62.9527 254.187 63.0318 253.697 63.0363C253.01 63.0487 252.33 62.8948 251.715 62.5875C251.157 62.3082 250.686 61.8802 250.355 61.3507C250.023 60.8107 249.853 60.1874 249.863 59.5538C249.853 58.9379 250.013 58.3312 250.324 57.7997C250.629 57.2876 251.067 56.8675 251.592 56.5835C252.152 56.2943 252.773 56.1423 253.403 56.1399C254.034 56.1375 254.656 56.2849 255.218 56.5698C255.728 56.846 256.154 57.2557 256.45 57.7552C256.755 58.2782 256.91 58.8748 256.9 59.4801ZM251.05 58.9474H255.717C255.625 58.4387 255.348 57.9821 254.939 57.6661C254.502 57.3303 253.962 57.1555 253.411 57.171C252.848 57.156 252.297 57.333 251.849 57.6729C251.435 57.9842 251.152 58.4386 251.055 58.9474H251.05Z" fill="white"/>
<path d="M264.287 62.0444C263.96 62.3595 263.574 62.6075 263.151 62.7741C262.695 62.9526 262.209 63.0416 261.719 63.0362C261.077 63.047 260.443 62.8925 259.878 62.5874C259.351 62.3007 258.911 61.8769 258.605 61.3609C258.3 60.8193 258.141 60.2084 258.141 59.5871C258.141 58.9658 258.3 58.355 258.605 57.8133C258.911 57.2973 259.351 56.8736 259.878 56.5868C260.38 56.3285 260.932 56.1796 261.496 56.1501C262.06 56.1206 262.624 56.211 263.151 56.4155C263.574 56.5871 263.96 56.8396 264.287 57.159L263.495 57.9589C263.28 57.7144 263.015 57.5188 262.718 57.3851C262.403 57.2458 262.063 57.1757 261.719 57.1795C261.286 57.1716 260.858 57.2799 260.481 57.493C260.123 57.6963 259.827 57.9922 259.624 58.3495C259.419 58.7315 259.312 59.1581 259.312 59.5914C259.312 60.0248 259.419 60.4514 259.624 60.8333C259.827 61.1905 260.123 61.4864 260.481 61.6898C260.858 61.903 261.286 62.0112 261.719 62.0033C262.062 62.007 262.401 61.9412 262.718 61.8097C263.01 61.6878 263.275 61.5078 263.495 61.2804L264.287 62.0444Z" fill="white"/>
<path d="M266.007 63.0347V52.7053H267.143V57.315C267.398 56.9573 267.734 56.6641 268.122 56.4585C268.52 56.2492 268.964 56.1426 269.414 56.1484C269.927 56.1357 270.432 56.2685 270.872 56.5313C271.313 56.7942 271.669 57.1763 271.901 57.6336C272.154 58.1265 272.281 58.6745 272.27 59.2284V63.0347H271.134V59.3723C271.161 58.7933 270.968 58.2256 270.594 57.7826C270.419 57.5839 270.202 57.4264 269.958 57.3216C269.715 57.2167 269.451 57.1671 269.186 57.1762C268.819 57.1709 268.457 57.2676 268.141 57.4555C267.835 57.6398 267.584 57.9015 267.411 58.2143C267.228 58.5477 267.135 58.9233 267.143 59.3038V63.0347H266.007Z" fill="white"/>
<path d="M274.335 63.0344V56.1516H275.363L275.424 57.3799C275.683 57.0045 276.025 56.6939 276.423 56.472C276.828 56.2506 277.284 56.1379 277.746 56.1448C278.258 56.1327 278.763 56.2657 279.203 56.5285C279.644 56.7912 280 57.1731 280.233 57.63C280.485 58.1231 280.611 58.6709 280.601 59.2248V63.0344H279.465V59.3721C279.492 58.7931 279.299 58.2254 278.926 57.7824C278.75 57.5839 278.533 57.4267 278.289 57.3219C278.046 57.217 277.783 57.1672 277.518 57.176C277.15 57.1706 276.787 57.2673 276.471 57.4552C276.166 57.6406 275.915 57.9021 275.741 58.2141C275.559 58.548 275.467 58.9234 275.474 59.3035V63.0344H274.335Z" fill="white"/>
<path d="M282.181 59.5879C282.17 58.9649 282.33 58.351 282.645 57.8132C282.951 57.2976 283.391 56.8739 283.918 56.5867C284.487 56.2929 285.118 56.1395 285.759 56.1395C286.4 56.1395 287.031 56.2929 287.601 56.5867C288.128 56.8729 288.568 57.2968 288.873 57.8132C289.179 58.3545 289.339 58.9655 289.339 59.587C289.339 60.2085 289.179 60.8195 288.873 61.3608C288.568 61.8772 288.128 62.3011 287.601 62.5873C287.032 62.8822 286.4 63.0362 285.759 63.0362C285.118 63.0362 284.487 62.8822 283.918 62.5873C283.391 62.3001 282.951 61.8764 282.645 61.3608C282.33 60.8236 282.17 60.2103 282.181 59.5879ZM283.351 59.5879C283.344 60.0217 283.452 60.4496 283.664 60.8281C283.867 61.1854 284.163 61.4813 284.521 61.6846C284.901 61.8903 285.327 61.998 285.76 61.998C286.193 61.998 286.619 61.8903 286.999 61.6846C287.356 61.4808 287.652 61.185 287.856 60.8281C288.062 60.4464 288.169 60.0197 288.169 59.5861C288.169 59.1526 288.062 58.7259 287.856 58.3442C287.652 57.9871 287.356 57.6913 286.999 57.4877C286.619 57.282 286.193 57.1743 285.76 57.1743C285.327 57.1743 284.901 57.282 284.521 57.4877C284.163 57.6908 283.867 57.9867 283.664 58.3442C283.451 58.7235 283.343 59.1528 283.351 59.5879Z" fill="white"/>
<path d="M292.229 52.4294V63.0346H291.059V52.4346L292.229 52.4294Z" fill="white"/>
<path d="M293.951 59.5879C293.94 58.9649 294.1 58.351 294.415 57.8132C294.721 57.2972 295.161 56.8734 295.688 56.5867C296.257 56.2929 296.888 56.1395 297.529 56.1395C298.17 56.1395 298.801 56.2929 299.371 56.5867C299.897 56.8739 300.337 57.2976 300.643 57.8132C300.948 58.3549 301.108 58.9657 301.108 59.587C301.108 60.2083 300.948 60.8191 300.643 61.3608C300.337 61.8764 299.897 62.3001 299.371 62.5873C298.802 62.8822 298.17 63.0362 297.529 63.0362C296.888 63.0362 296.257 62.8822 295.688 62.5873C295.161 62.3006 294.721 61.8768 294.415 61.3608C294.1 60.8236 293.94 60.2103 293.951 59.5879ZM295.121 59.5879C295.114 60.0214 295.222 60.4491 295.432 60.8281C295.636 61.1852 295.932 61.4811 296.289 61.6846C296.669 61.8903 297.095 61.998 297.527 61.998C297.96 61.998 298.386 61.8903 298.766 61.6846C299.123 61.4813 299.419 61.1854 299.622 60.8281C299.828 60.4464 299.936 60.0197 299.936 59.5861C299.936 59.1526 299.828 58.7259 299.622 58.3442C299.419 57.9867 299.123 57.6908 298.766 57.4877C298.386 57.282 297.96 57.1743 297.527 57.1743C297.095 57.1743 296.669 57.282 296.289 57.4877C295.932 57.691 295.636 57.9869 295.432 58.3442C295.221 58.724 295.113 59.1531 295.121 59.5879Z" fill="white"/>
<path d="M305.822 63.0344C305.198 63.0443 304.582 62.8895 304.037 62.5856C303.52 62.297 303.092 61.873 302.798 61.3591C302.502 60.815 302.346 60.2051 302.346 59.5853C302.346 58.9656 302.502 58.3557 302.798 57.8115C303.092 57.2977 303.52 56.8737 304.037 56.585C304.582 56.2817 305.198 56.1275 305.822 56.138C306.318 56.1325 306.81 56.2373 307.261 56.4446C307.691 56.6408 308.073 56.927 308.383 57.284L308.444 56.1448H309.472V62.2756C309.489 63.0349 309.331 63.7879 309.011 64.4768C308.716 65.093 308.242 65.6058 307.651 65.9482C306.974 66.3193 306.21 66.5016 305.438 66.4758C304.978 66.4792 304.52 66.4081 304.083 66.2651C303.673 66.1317 303.288 65.9333 302.941 65.6776L303.504 64.7269C303.764 64.9536 304.063 65.1317 304.386 65.2528C304.729 65.3818 305.093 65.4463 305.459 65.4429C306.437 65.4429 307.161 65.162 307.631 64.6001C308.1 64.0383 308.335 63.2891 308.336 62.3527V61.9947C308.024 62.3236 307.647 62.5838 307.228 62.7587C306.783 62.9451 306.304 63.039 305.822 63.0344ZM303.516 59.5862C303.509 60.02 303.617 60.4479 303.83 60.8264C304.033 61.1834 304.329 61.4792 304.686 61.6829C305.067 61.8886 305.493 61.9963 305.925 61.9963C306.358 61.9963 306.784 61.8886 307.165 61.6829C307.522 61.4792 307.818 61.1834 308.021 60.8264C308.227 60.4448 308.335 60.018 308.335 59.5845C308.335 59.1509 308.227 58.7242 308.021 58.3426C307.818 57.9855 307.522 57.6897 307.165 57.4861C306.784 57.2804 306.358 57.1727 305.925 57.1727C305.493 57.1727 305.067 57.2804 304.686 57.4861C304.329 57.6897 304.033 57.9855 303.83 58.3426C303.616 58.7224 303.508 59.1523 303.516 59.5879V59.5862Z" fill="white"/>
<path d="M311.19 56.1465H312.424L314.253 60.5643C314.332 60.7527 314.409 60.9514 314.488 61.1604C314.567 61.3694 314.632 61.5681 314.687 61.7548H314.716C314.771 61.563 314.834 61.3694 314.908 61.1741C314.981 60.9788 315.062 60.7733 315.149 60.5574L316.979 56.1465H318.178L313.895 66.4707H312.696L314.121 63.0293L311.19 56.1465Z" fill="white"/>
<path d="M42.6638 51.1858C42.0756 50.8724 41.4384 50.661 40.7795 50.5605L36.8174 54.5775C36.3027 55.093 36.0137 55.7916 36.0137 56.52C36.0137 57.2484 36.3027 57.9471 36.8174 58.4626L40.6099 62.3236C41.2827 62.2583 41.9427 62.0968 42.5696 61.844L38.0936 57.1881C38.0055 57.1005 37.9356 56.9964 37.888 56.8818C37.8403 56.7671 37.8157 56.6442 37.8157 56.52C37.8157 56.3959 37.8403 56.2729 37.888 56.1583C37.9356 56.0436 38.0055 55.9395 38.0936 55.852L42.6638 51.1858Z" fill="white"/>
<path d="M48.4263 61.7001C49.0145 62.0136 49.6516 62.225 50.3106 62.3253L54.271 58.3084C54.5268 58.0537 54.7299 57.751 54.8684 57.4176C55.0069 57.0843 55.0783 56.7268 55.0783 56.3658C55.0783 56.0048 55.0069 55.6474 54.8684 55.3141C54.7299 54.9807 54.5268 54.678 54.271 54.4233L50.4801 50.5605C49.8073 50.6269 49.1474 50.7889 48.5205 51.0419L52.9948 55.6978C53.0829 55.7854 53.1527 55.8894 53.2004 56.0041C53.2481 56.1187 53.2726 56.2417 53.2726 56.3658C53.2726 56.49 53.2481 56.613 53.2004 56.7276C53.1527 56.8423 53.0829 56.9464 52.9948 57.0339L48.4263 61.7001Z" fill="white"/>
<path d="M45.9108 50.4252L43.8765 62.1537L45.3955 62.4172L47.4298 50.6887L45.9108 50.4252Z" fill="white"/>
<path d="M54.8501 11.9105C62.6648 15.6328 67.8688 20.5131 69.5493 23.3755C68.6191 18.2365 63.129 12.9896 60.0593 11.1653C58.384 9.30671 61.8682 5.76425 63.4767 1.86035C63.4767 1.86035 55.4068 8.36971 54.8501 11.9105Z" fill="white"/>
<path d="M28.1463 13.7261C27.975 14.1766 28.5077 14.5638 28.5077 14.5638L30.9162 13.5291C30.9162 13.5291 28.3244 13.2807 28.1463 13.7295" fill="white"/>
<path d="M51.5456 35.1279H51.5181C51.1661 35.1508 50.8155 35.1931 50.4681 35.2547C50.3139 35.2821 50.1563 35.3112 49.9884 35.3455C49.7572 35.3934 49.5328 35.4534 49.3032 35.5168C47.2172 36.0759 45.3804 37.3214 44.0889 39.0524C43.9176 39.2699 43.7463 39.4806 43.5322 39.7513C43.008 36.6833 44.1232 34.1344 47.6434 30.4035C43.3095 29.2147 38.7358 29.7183 34.5596 27.8974C34.7916 27.2748 35.1136 26.6896 35.5154 26.1604C36.4438 24.9339 37.7252 24.1048 39.1298 23.3751C37.3567 23.6708 35.7139 24.494 34.4157 25.7373C33.8131 26.3156 33.276 26.9584 32.814 27.6541C27.2076 24.7912 22.5418 20.3776 19.3722 14.9386C22.2293 13.0491 25.3372 11.5695 28.6052 10.5431C33.7683 8.86824 39.2322 8.32776 44.6234 8.95858C45.5364 9.06649 46.1651 8.8438 46.8502 8.21342C51.3486 4.10225 56.6777 2.00727 62.7691 1.86166C62.9763 1.86166 63.1819 1.86166 63.4765 1.86166C56.4378 -3.08545 46.1599 3.3828 43.8714 3.53868C37.3003 3.99091 30.5991 4.09368 24.1377 5.49662C20.8214 6.2195 17.505 7.13595 14.4182 8.57144C11.304 10.0172 7.32817 12.4582 7.30418 16.3741C7.27164 22.0835 11.8282 26.6109 15.9034 30.0112C25.8113 38.2729 36.6134 42.4115 49.0429 45.214C55.1839 46.5981 63.5861 50.4574 62.3648 57.6092C61.1914 64.4783 50.5948 68.5432 43.5545 69.3586C42.6363 69.4648 35.5034 70.6536 35.1163 69.3911C33.936 65.5198 33.023 61.4428 30.8732 57.9603C28.35 53.8714 23.7968 52.3811 19.4852 50.7435C21.9297 53.6556 23.9716 59.4232 23.9767 63.4196C23.9887 71.8544 14.5142 74.8093 7.90887 76.4795C5.4593 77.0996 2.56263 78.3535 0 77.8105C5.66999 79.0095 11.4154 80.1795 17.207 79.974C20.7837 79.8472 24.3844 79.1586 27.6682 77.7042C30.6694 76.3767 33.4924 72.0086 36.6271 73.6479C48.7894 79.9962 68.4493 77.8721 73.7596 64.4748C79.7551 49.3577 65.6589 34.0162 51.5456 35.1262" fill="white"/>
</g>
<defs>
<clipPath id="clip0_2029_2527">
<rect width="318.376" height="80" fill="white"/>
</clipPath>
</defs>
</svg>
