<svg width="207" height="52" viewBox="0 0 207 52" fill="none" xmlns="http://www.w3.org/2000/svg">
<g clip-path="url(#clip0_2027_2362)">
<path d="M63.9484 25.3208C65.5718 25.3208 66.5126 25.2959 66.7709 25.2462C67.0281 25.1961 67.1562 24.9968 67.1562 24.646C67.1562 24.2263 66.9769 23.9635 66.6173 23.8555C66.2576 23.7475 65.3669 23.694 63.945 23.694C61.1243 23.694 59.3461 23.4892 58.6105 23.0794C57.8749 22.6697 57.5075 21.6564 57.5082 20.0397C57.5082 18.5455 57.9907 17.5883 58.9557 17.1682C59.6906 16.8482 61.3277 16.6886 63.8671 16.6894C66.1311 16.6894 67.5652 16.7514 68.1694 16.8753C69.5894 17.1604 70.2994 18.3677 70.2994 20.4973H66.9257C66.9257 19.9128 66.7977 19.5721 66.5427 19.4786C66.2877 19.385 65.4014 19.336 63.8816 19.336C62.3617 19.336 61.4776 19.3627 61.2427 19.4173C61.0078 19.4719 60.8897 19.6801 60.8897 20.0397C60.8897 20.4194 61.0902 20.6666 61.4899 20.7779C61.8896 20.8893 62.7147 20.9483 63.9495 20.9483C66.7331 20.9483 68.5261 21.1676 69.3285 21.6063C70.1309 22.045 70.5318 23.0572 70.531 24.6427C70.531 26.1072 70.0812 27.0444 69.1815 27.4541C68.4021 27.8052 66.6529 27.9804 63.9339 27.9797C61.8354 27.9797 60.4737 27.9322 59.8487 27.8372C58.8837 27.6924 58.2275 27.3584 57.8801 26.8351C57.5327 26.3117 57.359 25.3965 57.359 24.0893H60.7405C60.7405 24.7062 60.873 25.0636 61.138 25.1671C61.403 25.2707 62.3394 25.3197 63.9495 25.3197" fill="#283C63"/>
<path d="M73.1387 16.8497H76.5203V20.6878H83.8066V16.8497H87.1881V27.8093H83.8066V23.5293H76.5203V27.8093H73.1387V16.8497Z" fill="#283C63"/>
<path d="M94.7384 16.8341H100.541L105.976 27.796H102.033L100.99 25.9666H94.2953L93.2464 27.796H89.3026L94.7384 16.8341ZM97.9017 19.3015H97.3817L95.559 23.1251H99.72L97.9017 19.3015Z" fill="#283C63"/>
<path d="M107.798 16.8185H117.626C118.83 16.8185 119.684 17.039 120.187 17.4799C120.728 17.9587 120.998 18.8031 120.998 20.013C120.998 20.9527 120.887 21.6475 120.664 22.0974C120.441 22.5472 120.049 22.8846 119.487 23.1095C120.096 23.3797 120.5 23.6469 120.701 23.9112C120.901 24.1754 121.001 24.6505 121.001 25.3364V27.7948H117.627V25.8296C117.635 25.5698 117.553 25.3153 117.395 25.1092C117.2 24.8502 116.908 24.7203 116.517 24.7195H111.18V27.7937H107.799L107.798 16.8185ZM111.178 19.6611V21.888H116.599C116.964 21.888 117.226 21.809 117.386 21.6486C117.546 21.4883 117.626 21.2033 117.626 20.779C117.626 20.3548 117.544 20.0687 117.379 19.905C117.214 19.7413 116.954 19.6623 116.6 19.6623L111.178 19.6611Z" fill="#283C63"/>
<path d="M124.222 16.8352H127.604V20.6733H129.366L133.189 16.8352H137.845L132.357 22.0528L138.549 27.7804H133.647L129.366 23.5148H127.604V27.7949H124.222V16.8352Z" fill="#283C63"/>
<path d="M144.562 16.6181L141.151 29.1599H139.45L142.86 16.6181H144.562Z" fill="#283C63"/>
<path d="M146.294 17.5534C145.659 18.1101 145.342 19.6923 145.342 22.3C145.342 24.9188 145.672 26.5148 146.331 27.0878C146.99 27.6609 148.897 27.9466 152.052 27.9452C155.206 27.9452 157.145 27.6854 157.869 27.1657C158.484 26.7256 158.791 25.5282 158.791 23.5738H155.411C155.411 24.2418 155.225 24.6642 154.854 24.8409C154.483 25.0175 153.549 25.1077 152.052 25.1114C150.403 25.1114 149.438 24.9827 149.157 24.7251C148.875 24.4675 148.733 23.664 148.728 22.3145C148.728 20.9509 148.871 20.1414 149.157 19.8861C149.443 19.6307 150.408 19.5034 152.052 19.5042C153.526 19.5042 154.473 19.6114 154.893 19.8259C155.226 20.0011 155.392 20.4064 155.392 21.0418H158.788C158.788 19.0977 158.471 17.9008 157.836 17.451C157.112 16.9262 155.182 16.6638 152.046 16.6638C148.893 16.6638 146.974 16.9607 146.289 17.5545" fill="#283C63"/>
<mask id="mask0_2027_2362" style="mask-type:luminance" maskUnits="userSpaceOnUse" x="145" y="16" width="14" height="12">
<path d="M146.294 17.5545C145.659 18.109 145.342 19.6908 145.342 22.3C145.342 24.9092 145.672 26.5051 146.331 27.0878C146.991 27.6601 148.898 27.9463 152.052 27.9463C155.206 27.9463 157.145 27.6865 157.87 27.1669C158.484 26.7267 158.791 25.5297 158.791 23.576H155.41C155.41 24.2441 155.224 24.6661 154.853 24.842C154.482 25.0179 153.548 25.1077 152.052 25.1114C150.403 25.1114 149.438 24.9827 149.157 24.7251C148.875 24.4675 148.733 23.6643 148.728 22.3156C148.728 20.9505 148.871 20.1407 149.157 19.8861C149.443 19.6315 150.408 19.5042 152.052 19.5042C153.526 19.5042 154.473 19.6114 154.892 19.8259C155.225 19.9996 155.392 20.4049 155.392 21.0418H158.788C158.788 19.0977 158.471 17.9008 157.836 17.451C157.112 16.9254 155.182 16.663 152.046 16.6638C148.893 16.6638 146.974 16.9607 146.289 17.5545" fill="white"/>
</mask>
<g mask="url(#mask0_2027_2362)">
<path d="M158.791 16.6628H145.342V27.9453H158.791V16.6628Z" fill="#283C63"/>
</g>
<mask id="mask1_2027_2362" style="mask-type:luminance" maskUnits="userSpaceOnUse" x="161" y="16" width="15" height="12">
<path d="M165.176 24.7629C164.853 24.5306 164.692 23.7141 164.692 22.3134C164.692 20.8978 164.853 20.0753 165.176 19.846C165.499 19.6166 166.632 19.5019 168.575 19.5019C170.509 19.5019 171.637 19.6166 171.96 19.846C172.283 20.0753 172.445 20.8978 172.445 22.3134C172.445 23.7118 172.283 24.5284 171.96 24.7629C171.637 24.9975 170.504 25.1137 168.561 25.1114C166.627 25.1114 165.499 24.9953 165.176 24.7629ZM162.263 17.5256C161.629 18.0452 161.311 19.6411 161.311 22.3134C161.311 24.2574 161.414 25.532 161.618 26.1369C161.883 26.9252 162.518 27.4371 163.522 27.6724C164.323 27.8527 166.003 27.9429 168.561 27.9429C172.059 27.9429 174.155 27.6631 174.85 27.1034C175.495 26.5779 175.818 24.9819 175.817 22.3156C175.816 19.6493 175.489 18.047 174.835 17.5089C174.14 16.9455 172.049 16.6634 168.561 16.6626C165.057 16.6626 162.958 16.9495 162.263 17.5233" fill="white"/>
</mask>
<g mask="url(#mask1_2027_2362)">
<path d="M175.817 16.6626H161.31V27.9451H175.817V16.6626Z" fill="#283C63"/>
</g>
<mask id="mask2_2027_2362" style="mask-type:luminance" maskUnits="userSpaceOnUse" x="177" y="16" width="16" height="12">
<path d="M181.328 19.6611H186.838C187.562 19.6611 188.053 19.8467 188.311 20.2179C188.569 20.589 188.697 21.2879 188.697 22.3145C188.697 23.3285 188.569 24.0192 188.311 24.3866C188.053 24.754 187.562 24.9396 186.838 24.9433H181.328V19.6611ZM177.946 16.8196V27.7804H187.41C189.345 27.7804 190.62 27.3951 191.235 26.6246C191.795 25.9209 192.075 24.4846 192.074 22.3156C192.074 20.1355 191.787 18.6861 191.212 17.9676C190.601 17.203 189.334 16.8204 187.41 16.8196H177.946Z" fill="white"/>
</mask>
<g mask="url(#mask2_2027_2362)">
<path d="M192.071 16.8196H177.946V27.7793H192.071V16.8196Z" fill="#283C63"/>
</g>
<mask id="mask3_2027_2362" style="mask-type:luminance" maskUnits="userSpaceOnUse" x="195" y="16" width="12" height="12">
<path d="M195.122 16.8196V27.7949H206.945V25.1404H198.504V23.6339H206.562V20.9951H198.504V19.473H206.945V16.8196H195.122Z" fill="white"/>
</mask>
<g mask="url(#mask3_2027_2362)">
<path d="M206.944 16.8197H195.121V27.7949H206.944V16.8197Z" fill="#283C63"/>
</g>
<path d="M60.1504 34.2584V40.9724H59.371V34.2584H60.1504Z" fill="#928A97"/>
<path d="M61.0445 34.9743V34.2584H65.9659V34.9743H63.8949V40.9724H63.1155V34.9777L61.0445 34.9743Z" fill="#928A97"/>
<path d="M69.2227 39.5639C69.4404 39.7947 69.7066 39.9742 70.0021 40.0895C70.2739 40.1982 70.5635 40.2553 70.8562 40.2576C71.1145 40.2602 71.3707 40.2114 71.61 40.114C71.8277 40.0281 72.0195 39.8873 72.1667 39.7053C72.3077 39.5231 72.3817 39.2978 72.376 39.0673C72.3827 38.8352 72.3034 38.6088 72.1533 38.4316C71.9915 38.2497 71.798 38.0987 71.5821 37.9862C71.3483 37.8593 71.1 37.7375 70.8372 37.621C70.6205 37.523 70.4045 37.4194 70.1892 37.3103C69.9817 37.2061 69.7858 37.0804 69.6047 36.9351C69.4332 36.7965 69.2912 36.625 69.1871 36.4307C69.0774 36.2151 69.0234 35.9755 69.0301 35.7337C69.0212 35.3991 69.1216 35.0707 69.3163 34.7984C69.5148 34.5333 69.7814 34.3271 70.0879 34.2016C70.4302 34.0589 70.7982 33.988 71.169 33.9934C71.4445 33.9952 71.719 34.0273 71.9874 34.0891C72.2798 34.1569 72.5633 34.2582 72.8325 34.3909L72.5152 35.0589C72.3125 34.9393 72.094 34.849 71.8661 34.7906C71.6529 34.7353 71.4337 34.7069 71.2136 34.706C70.8708 34.6958 70.5326 34.786 70.2404 34.9654C70.1352 35.034 70.0457 35.124 69.9777 35.2296C69.9097 35.3353 69.8648 35.4541 69.846 35.5782C69.8272 35.7024 69.8349 35.8292 69.8685 35.9502C69.9021 36.0712 69.9609 36.1837 70.0411 36.2804C70.1939 36.4473 70.3757 36.585 70.5778 36.6868C70.8005 36.8041 71.0362 36.9191 71.2848 37.032C71.5075 37.1329 71.7302 37.2402 71.9529 37.3538C72.1703 37.4633 72.3755 37.5954 72.5653 37.7479C72.7475 37.8932 72.8989 38.0734 73.0107 38.2779C73.1276 38.5036 73.1855 38.7553 73.1788 39.0094C73.1829 39.3673 73.0755 39.7175 72.8715 40.0115C72.6596 40.3134 72.3719 40.5541 72.0375 40.7097C71.6623 40.8844 71.2522 40.9716 70.8383 40.9647C70.4838 40.9627 70.1319 40.9037 69.7962 40.7898C69.4412 40.6694 69.1108 40.4861 68.8208 40.2487L69.2227 39.5639Z" fill="#928A97"/>
<path d="M74.1252 38.7322C74.1185 38.3272 74.2232 37.9281 74.4281 37.5787C74.6267 37.243 74.9126 36.9675 75.2554 36.7814C75.6255 36.5904 76.0359 36.4908 76.4523 36.4908C76.8688 36.4908 77.2792 36.5904 77.6493 36.7814C77.9916 36.9681 78.2774 37.2435 78.4766 37.5787C78.6744 37.9308 78.7783 38.3278 78.7783 38.7316C78.7783 39.1355 78.6744 39.5325 78.4766 39.8846C78.2774 40.2198 77.9916 40.4952 77.6493 40.6818C77.2794 40.8735 76.8689 40.9736 76.4523 40.9736C76.0357 40.9736 75.6252 40.8735 75.2554 40.6818C74.9126 40.4958 74.6267 40.2203 74.4281 39.8846C74.2232 39.5356 74.1184 39.1369 74.1252 38.7322ZM74.8857 38.7322C74.8813 39.0142 74.9516 39.2923 75.0895 39.5383C75.2217 39.7705 75.414 39.9628 75.6462 40.0951C75.8935 40.2288 76.1701 40.2988 76.4512 40.2988C76.7323 40.2988 77.009 40.2288 77.2562 40.0951C77.4885 39.9629 77.6808 39.7706 77.813 39.5383C77.9467 39.2903 78.0167 39.0129 78.0167 38.7311C78.0167 38.4493 77.9467 38.1719 77.813 37.9238C77.681 37.6915 77.4886 37.4991 77.2562 37.3671C77.009 37.2334 76.7323 37.1634 76.4512 37.1634C76.1701 37.1634 75.8935 37.2334 75.6462 37.3671C75.4139 37.4992 75.2216 37.6916 75.0895 37.9238C74.9525 38.1708 74.8837 38.4498 74.8902 38.7322H74.8857Z" fill="#928A97"/>
<path d="M79.6279 37.1656V36.4975H80.3661V35.688C80.3578 35.4994 80.3867 35.3109 80.4513 35.1334C80.5159 34.9559 80.6148 34.7929 80.7424 34.6536C80.8683 34.5233 81.0202 34.421 81.1883 34.3533C81.3563 34.2855 81.5367 34.254 81.7178 34.2606C82.0322 34.2559 82.3391 34.3567 82.5896 34.5468L82.3035 35.1636C82.2414 35.0924 82.165 35.035 82.0794 34.9952C81.9937 34.9554 81.9006 34.9339 81.8061 34.9324C81.7117 34.9308 81.6179 34.9491 81.531 34.986C81.444 35.023 81.3658 35.0778 81.3014 35.1469C81.1681 35.301 81.0985 35.5001 81.1065 35.7036V36.4997H82.3057V37.1678H81.1043V40.9724H80.3661V37.1689L79.6279 37.1656Z" fill="#928A97"/>
<path d="M84.0438 36.4953V35.2939H84.782V36.4975H85.999V37.1656H84.782V39.5038C84.782 40.0383 85.0296 40.3055 85.5247 40.3055C85.6049 40.3053 85.6849 40.2986 85.7641 40.2854C85.8454 40.2731 85.9245 40.2491 85.999 40.2142V40.8555C85.91 40.8921 85.818 40.9208 85.724 40.9413C85.6024 40.9664 85.4785 40.9783 85.3543 40.9769C84.9312 40.9769 84.6068 40.8555 84.3812 40.6128C84.1555 40.3701 84.0442 40.0245 84.0471 39.5762V37.1689H83.3089V36.5009L84.0438 36.4953Z" fill="#928A97"/>
<path d="M86.804 36.4953H87.5834L88.6969 39.8189L89.8103 36.4953H90.5975L91.7254 39.859L92.8478 36.4997H93.6038L92.1051 40.9724H91.3491L91.358 40.9446L90.2045 37.5007L89.0632 40.9134L89.081 40.9724H88.3016L86.804 36.4953Z" fill="#928A97"/>
<path d="M94.4456 39.5506C94.4389 39.3438 94.4829 39.1385 94.5737 38.9526C94.6646 38.7667 94.7994 38.6058 94.9667 38.4839C95.3141 38.2196 95.7828 38.0875 96.3729 38.0875C96.7724 38.0875 97.1694 38.1495 97.5499 38.2712V38.2245C97.5566 38.0778 97.53 37.9315 97.4722 37.7965C97.4143 37.6615 97.3267 37.5413 97.2158 37.4451C96.9931 37.2558 96.6925 37.1611 96.3139 37.1611C95.8772 37.1746 95.4491 37.286 95.0613 37.4874L94.793 36.9306C95.0532 36.7907 95.3275 36.6787 95.6113 36.5966C95.8681 36.5283 96.1329 36.4946 96.3986 36.4964C96.9716 36.4964 97.4289 36.6675 97.7703 37.0097C98.1118 37.3519 98.2825 37.8099 98.2825 38.3837V40.9724H97.6144L97.5743 40.2253C97.4257 40.4624 97.2156 40.6548 96.9664 40.7821C96.6899 40.9193 96.3843 40.9876 96.0757 40.9814C95.5902 40.9814 95.1957 40.85 94.8921 40.5872C94.7445 40.4591 94.6277 40.2994 94.5504 40.1199C94.4731 39.9404 94.4373 39.7458 94.4456 39.5506ZM96.4409 38.7589C96.0519 38.7589 95.749 38.8283 95.5323 38.9671C95.4381 39.0257 95.3594 39.106 95.3028 39.2013C95.2462 39.2967 95.2133 39.4042 95.207 39.5149C95.2007 39.6256 95.2211 39.7362 95.2664 39.8373C95.3118 39.9385 95.3808 40.0273 95.4677 40.0962C95.6692 40.2418 95.9142 40.3145 96.1625 40.3022C96.4083 40.3061 96.6512 40.2491 96.8695 40.1363C97.0709 40.0333 97.242 39.8798 97.3661 39.6909C97.4886 39.5037 97.5526 39.2843 97.5499 39.0607V38.9393C97.1921 38.8206 96.8178 38.7597 96.4409 38.7589Z" fill="#928A97"/>
<path d="M99.6298 40.9724V36.4986H100.298L100.342 37.3181C100.485 37.0765 100.683 36.8717 100.919 36.7202C101.174 36.5653 101.468 36.4879 101.765 36.4975C101.899 36.4975 102.039 36.4975 102.186 36.4975L102.075 37.2547C101.945 37.1987 101.805 37.1685 101.663 37.1656C101.479 37.1568 101.296 37.1928 101.13 37.2703C100.963 37.3479 100.818 37.4648 100.706 37.611C100.472 37.9293 100.352 38.3172 100.366 38.7121V40.9724H99.6298Z" fill="#928A97"/>
<path d="M107.205 38.6621V38.9415H103.41C103.477 39.3262 103.682 39.6734 103.986 39.9191C104.299 40.1758 104.694 40.3117 105.099 40.3022C105.36 40.2988 105.619 40.251 105.864 40.1607C106.138 40.0636 106.388 39.9092 106.598 39.7076L107.032 40.2643C106.747 40.512 106.417 40.7012 106.059 40.821C105.756 40.9192 105.44 40.9706 105.121 40.9736C104.675 40.9815 104.233 40.8814 103.833 40.6818C103.47 40.5002 103.165 40.2221 102.95 39.8779C102.734 39.5273 102.622 39.1219 102.629 38.7099C102.623 38.3095 102.727 37.9149 102.93 37.5698C103.128 37.2368 103.412 36.9636 103.753 36.7792C104.117 36.5913 104.521 36.4925 104.93 36.4909C105.34 36.4894 105.744 36.5851 106.11 36.7703C106.442 36.9495 106.719 37.2159 106.911 37.5408C107.109 37.8807 107.211 38.2685 107.205 38.6621ZM103.401 38.3158H106.434C106.375 37.9849 106.195 37.688 105.929 37.4829C105.645 37.2649 105.294 37.1513 104.936 37.1611C104.57 37.1512 104.212 37.2662 103.92 37.4874C103.65 37.6891 103.465 37.9846 103.401 38.3158Z" fill="#928A97"/>
<path d="M110.684 39.5639C110.902 39.7943 111.168 39.9738 111.463 40.0895C111.735 40.1985 112.025 40.2555 112.317 40.2576C112.576 40.2601 112.832 40.2113 113.071 40.114C113.289 40.0283 113.481 39.8875 113.628 39.7053C113.769 39.5232 113.844 39.2979 113.838 39.0673C113.845 38.8352 113.766 38.6088 113.616 38.4316C113.454 38.2498 113.261 38.0988 113.046 37.9862C112.812 37.8593 112.564 37.7375 112.301 37.621C112.082 37.523 111.866 37.4194 111.652 37.3103C111.444 37.2061 111.249 37.0804 111.068 36.9351C110.896 36.7966 110.754 36.6251 110.649 36.4307C110.541 36.2148 110.487 35.9753 110.494 35.7337C110.484 35.399 110.585 35.0705 110.78 34.7984C110.978 34.5329 111.245 34.3265 111.551 34.2016C111.893 34.059 112.261 33.9882 112.631 33.9934C112.907 33.9951 113.182 34.0272 113.451 34.0891C113.743 34.1569 114.027 34.2582 114.296 34.3909L113.979 35.0589C113.776 34.9393 113.557 34.849 113.33 34.7906C113.116 34.7353 112.896 34.7068 112.676 34.706C112.334 34.6957 111.996 34.7859 111.704 34.9654C111.599 35.034 111.509 35.124 111.441 35.2296C111.373 35.3353 111.328 35.4541 111.31 35.5782C111.291 35.7024 111.298 35.8292 111.332 35.9502C111.366 36.0712 111.424 36.1837 111.505 36.2804C111.657 36.4473 111.839 36.585 112.041 36.6868C112.264 36.8041 112.5 36.9191 112.748 37.032C112.971 37.1333 113.194 37.2402 113.416 37.3537C113.634 37.4633 113.84 37.5954 114.03 37.7479C114.212 37.8935 114.363 38.0736 114.475 38.2779C114.592 38.5037 114.649 38.7554 114.642 39.0094C114.647 39.3672 114.54 39.7174 114.336 40.0115C114.124 40.3134 113.837 40.5541 113.502 40.7097C113.127 40.8844 112.717 40.9716 112.303 40.9646C111.948 40.9629 111.596 40.9039 111.261 40.7898C110.906 40.6699 110.575 40.4865 110.285 40.2487L110.684 39.5639Z" fill="#928A97"/>
<path d="M115.588 38.7322C115.581 38.3274 115.685 37.9284 115.889 37.5787C116.089 37.2432 116.375 36.9678 116.718 36.7814C117.088 36.5905 117.498 36.4908 117.914 36.4908C118.33 36.4908 118.741 36.5905 119.111 36.7814C119.453 36.9675 119.739 37.243 119.938 37.5787C120.136 37.9305 120.241 38.3277 120.241 38.7316C120.241 39.1356 120.136 39.5328 119.938 39.8846C119.739 40.2203 119.453 40.4958 119.111 40.6818C118.741 40.8735 118.331 40.9736 117.914 40.9736C117.498 40.9736 117.087 40.8735 116.718 40.6818C116.375 40.4955 116.089 40.2201 115.889 39.8846C115.685 39.5353 115.581 39.1367 115.588 38.7322ZM116.348 38.7322C116.344 39.0142 116.414 39.2923 116.552 39.5383C116.684 39.7706 116.876 39.9629 117.109 40.0951C117.356 40.2288 117.633 40.2988 117.914 40.2988C118.195 40.2988 118.472 40.2288 118.72 40.0951C118.952 39.9626 119.144 39.7704 119.276 39.5383C119.41 39.2903 119.48 39.0129 119.48 38.7311C119.48 38.4493 119.41 38.1719 119.276 37.9238C119.144 37.6917 118.952 37.4995 118.72 37.3671C118.472 37.2334 118.195 37.1634 117.914 37.1634C117.633 37.1634 117.356 37.2334 117.109 37.3671C116.876 37.4991 116.684 37.6915 116.552 37.9238C116.413 38.1704 116.343 38.4494 116.348 38.7322Z" fill="#928A97"/>
<path d="M122.119 34.0791V40.9724H121.359V34.0825L122.119 34.0791Z" fill="#928A97"/>
<path d="M124.2 36.4953V38.8758C124.183 39.251 124.309 39.6187 124.551 39.9058C124.665 40.0354 124.806 40.1382 124.964 40.2068C125.122 40.2753 125.294 40.3079 125.466 40.3022C125.705 40.3062 125.94 40.2433 126.145 40.1207C126.344 40.0007 126.508 39.8301 126.62 39.6263C126.738 39.4098 126.798 39.1661 126.794 38.9193V36.4953H127.533V40.9724H126.865L126.824 40.2097C126.655 40.4508 126.429 40.6467 126.166 40.7804C125.903 40.9141 125.612 40.9815 125.317 40.9769C124.984 40.9845 124.655 40.8979 124.369 40.7269C124.083 40.5559 123.851 40.3075 123.7 40.0104C123.536 39.6904 123.454 39.3346 123.461 38.9749V36.4986L124.2 36.4953Z" fill="#928A97"/>
<path d="M129.433 36.4953V35.2939H130.171V36.4975H131.388V37.1656H130.171V39.5038C130.171 40.0383 130.419 40.3055 130.914 40.3055C130.994 40.3053 131.074 40.2986 131.154 40.2854C131.235 40.2731 131.314 40.2491 131.388 40.2142V40.8555C131.3 40.8923 131.208 40.9209 131.113 40.9413C130.992 40.9664 130.869 40.9784 130.745 40.9769C130.32 40.9769 129.996 40.8555 129.772 40.6128C129.548 40.3701 129.436 40.0245 129.438 39.5762V37.1689H128.7V36.5009L129.433 36.4953Z" fill="#928A97"/>
<path d="M132.499 34.7728C132.496 34.7046 132.508 34.6366 132.533 34.573C132.558 34.5094 132.595 34.4516 132.643 34.4031C132.691 34.3553 132.748 34.3178 132.811 34.2929C132.874 34.268 132.941 34.2563 133.009 34.2584C133.077 34.2561 133.145 34.2678 133.209 34.2927C133.273 34.3176 133.331 34.3552 133.379 34.4031C133.453 34.4756 133.503 34.5683 133.523 34.6694C133.543 34.7705 133.533 34.8754 133.493 34.9704C133.453 35.0655 133.385 35.1465 133.299 35.2029C133.213 35.2594 133.112 35.2887 133.009 35.2872C132.941 35.2892 132.873 35.2771 132.81 35.2516C132.747 35.2261 132.691 35.1878 132.643 35.1391C132.596 35.091 132.558 35.0338 132.533 34.9708C132.508 34.9078 132.497 34.8405 132.499 34.7728ZM132.641 40.9691V36.4953H133.384V40.9724L132.641 40.9691Z" fill="#928A97"/>
<path d="M134.503 38.7322C134.496 38.3273 134.6 37.9282 134.805 37.5787C135.003 37.2433 135.289 36.9678 135.632 36.7814C136.002 36.5904 136.412 36.4908 136.829 36.4908C137.245 36.4908 137.656 36.5904 138.026 36.7814C138.368 36.9681 138.654 37.2435 138.853 37.5787C139.051 37.9308 139.155 38.3278 139.155 38.7316C139.155 39.1355 139.051 39.5325 138.853 39.8846C138.654 40.2198 138.368 40.4952 138.026 40.6818C137.656 40.8735 137.245 40.9736 136.829 40.9736C136.412 40.9736 136.002 40.8735 135.632 40.6818C135.289 40.4955 135.003 40.22 134.805 39.8846C134.6 39.5355 134.496 39.1368 134.503 38.7322ZM135.263 38.7322C135.259 39.014 135.329 39.292 135.466 39.5383C135.598 39.7705 135.79 39.9628 136.023 40.0951C136.27 40.2288 136.547 40.2988 136.828 40.2988C137.109 40.2988 137.385 40.2288 137.633 40.0951C137.865 39.9629 138.057 39.7706 138.189 39.5383C138.323 39.2903 138.393 39.0129 138.393 38.7311C138.393 38.4493 138.323 38.1719 138.189 37.9238C138.057 37.6915 137.865 37.4991 137.633 37.3671C137.385 37.2334 137.109 37.1634 136.828 37.1634C136.547 37.1634 136.27 37.2334 136.023 37.3671C135.79 37.4992 135.598 37.6916 135.466 37.9238C135.328 38.1707 135.258 38.4496 135.263 38.7322Z" fill="#928A97"/>
<path d="M140.274 40.9725V36.4986H140.942L140.982 37.297C141.15 37.053 141.372 36.8511 141.631 36.7068C141.894 36.5629 142.191 36.4897 142.491 36.4942C142.824 36.4863 143.152 36.5728 143.438 36.7436C143.724 36.9144 143.956 37.1626 144.107 37.4595C144.271 37.7801 144.353 38.1362 144.347 38.4962V40.9725H143.609V38.5919C143.626 38.2156 143.501 37.8466 143.258 37.5586C143.144 37.4296 143.002 37.3274 142.844 37.2593C142.686 37.1911 142.515 37.1588 142.343 37.1645C142.103 37.161 141.868 37.2238 141.662 37.346C141.464 37.4664 141.301 37.6364 141.188 37.8392C141.07 38.0562 141.01 38.3003 141.014 38.5474V40.9725H140.274Z" fill="#928A97"/>
<path d="M148.013 39.1019C148.008 38.8502 148.066 38.6012 148.18 38.377C148.294 38.1643 148.445 37.9735 148.626 37.8136C148.813 37.6479 149.014 37.4988 149.227 37.3682C149.051 37.1057 148.901 36.8259 148.782 36.5332C148.675 36.2798 148.619 36.0084 148.616 35.7337C148.611 35.4674 148.68 35.2051 148.815 34.9755C148.946 34.7551 149.135 34.5746 149.361 34.4532C149.602 34.3239 149.872 34.2584 150.146 34.2628C150.335 34.2546 150.524 34.2852 150.702 34.3528C150.879 34.4204 151.041 34.5236 151.177 34.6559C151.306 34.7848 151.407 34.9389 151.475 35.1086C151.542 35.2782 151.574 35.4599 151.569 35.6424C151.571 36.0322 151.433 36.4099 151.179 36.7057C150.9 37.0329 150.569 37.3114 150.199 37.5297C150.461 37.8348 150.739 38.1248 151.034 38.3982C151.343 38.6869 151.658 38.962 151.979 39.2232C152.174 38.9587 152.343 38.6765 152.485 38.3804C152.635 38.0694 152.764 37.7483 152.87 37.4195L153.546 37.6277C153.42 37.9885 153.271 38.3411 153.101 38.6832C152.934 39.0184 152.736 39.3375 152.51 39.6363C152.727 39.8033 152.937 39.9577 153.138 40.0995C153.34 40.2413 153.526 40.3686 153.695 40.4814L153.302 41.0448C153.126 40.9238 152.934 40.7869 152.724 40.634C152.516 40.4825 152.298 40.3166 152.072 40.1396C151.821 40.3874 151.532 40.5934 151.217 40.7498C150.898 40.9014 150.549 40.9776 150.197 40.9725C149.828 40.9747 149.463 40.8937 149.13 40.7353C148.81 40.5879 148.533 40.3614 148.325 40.0772C148.118 39.7946 148.008 39.4522 148.013 39.1019ZM151.534 39.7176C151.191 39.4392 150.852 39.1423 150.516 38.8268C150.193 38.5259 149.889 38.2049 149.606 37.8659C149.388 38.0027 149.195 38.1756 149.035 38.377C148.885 38.5737 148.806 38.8162 148.813 39.064C148.808 39.2932 148.875 39.5182 149.004 39.7076C149.134 39.893 149.31 40.0409 149.515 40.1363C149.73 40.2381 149.966 40.2899 150.203 40.2877C150.447 40.2885 150.689 40.2361 150.91 40.134C151.138 40.0279 151.349 39.8874 151.534 39.7176ZM149.364 35.7782C149.367 35.9841 149.409 36.1876 149.486 36.3784C149.575 36.6039 149.687 36.8196 149.82 37.022C150.086 36.8653 150.33 36.6744 150.545 36.4541C150.644 36.355 150.723 36.2371 150.776 36.1072C150.829 35.9774 150.855 35.8383 150.854 35.6981C150.859 35.5948 150.844 35.4915 150.809 35.3942C150.774 35.2969 150.72 35.2076 150.65 35.1313C150.589 35.0645 150.515 35.0111 150.432 34.9747C150.349 34.9383 150.259 34.9196 150.169 34.9198C150.065 34.9213 149.962 34.9433 149.867 34.9846C149.771 35.0259 149.685 35.0856 149.612 35.1603C149.53 35.24 149.465 35.3363 149.422 35.4428C149.379 35.5493 149.36 35.6636 149.364 35.7782Z" fill="#928A97"/>
<path d="M156.911 34.9743V34.2584H161.832V34.9743H159.761V40.9724H158.982V34.9777L156.911 34.9743Z" fill="#928A97"/>
<path d="M166.985 38.6621V38.9415H163.192C163.259 39.3263 163.463 39.6737 163.767 39.9191C164.081 40.1758 164.476 40.3117 164.881 40.3022C165.142 40.2988 165.401 40.251 165.646 40.1607C165.92 40.0636 166.17 39.9092 166.38 39.7076L166.814 40.2643C166.529 40.5118 166.198 40.701 165.841 40.821C165.538 40.9192 165.222 40.9706 164.903 40.9736C164.456 40.9817 164.014 40.8816 163.615 40.6818C163.252 40.5003 162.946 40.2221 162.731 39.8779C162.515 39.527 162.404 39.1218 162.411 38.7099C162.405 38.3096 162.508 37.9152 162.711 37.5698C162.909 37.2369 163.194 36.9638 163.535 36.7792C163.899 36.5913 164.302 36.4925 164.712 36.4909C165.122 36.4894 165.526 36.5851 165.892 36.7703C166.224 36.9498 166.5 37.2162 166.692 37.5408C166.891 37.8808 166.992 38.2686 166.985 38.6621ZM163.183 38.3158H166.216C166.156 37.9851 165.976 37.6883 165.71 37.4829C165.426 37.2647 165.075 37.151 164.717 37.1611C164.351 37.1514 163.993 37.2664 163.702 37.4874C163.433 37.6897 163.249 37.9851 163.186 38.3158H163.183Z" fill="#928A97"/>
<path d="M171.786 40.3289C171.574 40.5337 171.323 40.6949 171.048 40.8032C170.752 40.9192 170.436 40.977 170.117 40.9736C169.7 40.9806 169.288 40.8801 168.92 40.6818C168.578 40.4955 168.292 40.22 168.093 39.8846C167.895 39.5325 167.791 39.1355 167.791 38.7316C167.791 38.3278 167.895 37.9308 168.093 37.5787C168.292 37.2433 168.578 36.9678 168.92 36.7814C169.247 36.6135 169.606 36.5168 169.972 36.4976C170.339 36.4784 170.706 36.5372 171.048 36.6701C171.323 36.7816 171.574 36.9458 171.786 37.1533L171.272 37.6733C171.132 37.5144 170.96 37.3872 170.767 37.3003C170.562 37.2098 170.341 37.1642 170.117 37.1667C169.836 37.1616 169.558 37.2319 169.312 37.3705C169.08 37.5026 168.888 37.6949 168.756 37.9272C168.623 38.1755 168.553 38.4528 168.553 38.7344C168.553 39.0161 168.623 39.2934 168.756 39.5417C168.888 39.7739 169.08 39.9661 169.312 40.0984C169.558 40.2369 169.836 40.3073 170.117 40.3022C170.34 40.3046 170.561 40.2618 170.767 40.1763C170.957 40.0971 171.129 39.9801 171.272 39.8323L171.786 40.3289Z" fill="#928A97"/>
<path d="M172.904 40.9724V34.2584H173.643V37.2547C173.809 37.0222 174.027 36.8316 174.279 36.6979C174.538 36.5619 174.827 36.4926 175.119 36.4964C175.452 36.4881 175.781 36.5744 176.067 36.7453C176.353 36.9161 176.585 37.1645 176.736 37.4618C176.9 37.7821 176.982 38.1383 176.975 38.4984V40.9724H176.237V38.5919C176.254 38.2156 176.129 37.8466 175.886 37.5586C175.772 37.4294 175.631 37.3271 175.473 37.2589C175.314 37.1908 175.143 37.1585 174.971 37.1645C174.732 37.161 174.497 37.2238 174.292 37.346C174.093 37.4658 173.929 37.6359 173.817 37.8392C173.698 38.0559 173.638 38.3001 173.643 38.5474V40.9724H172.904Z" fill="#928A97"/>
<path d="M178.318 40.9725V36.4986H178.986L179.026 37.297C179.194 37.053 179.416 36.8511 179.675 36.7068C179.938 36.5629 180.235 36.4897 180.535 36.4942C180.868 36.4863 181.196 36.5728 181.482 36.7436C181.768 36.9144 182 37.1626 182.151 37.4595C182.315 37.7801 182.398 38.1362 182.391 38.4962V40.9725H181.653V38.5919C181.67 38.2156 181.545 37.8466 181.302 37.5586C181.188 37.4296 181.047 37.3274 180.888 37.2593C180.73 37.1911 180.559 37.1588 180.387 37.1645C180.147 37.161 179.912 37.2238 179.706 37.346C179.508 37.4664 179.345 37.6364 179.232 37.8392C179.114 38.0562 179.054 38.3003 179.058 38.5474V40.9725H178.318Z" fill="#928A97"/>
<path d="M183.417 38.7322C183.41 38.3273 183.515 37.9282 183.719 37.5787C183.918 37.2435 184.204 36.9681 184.546 36.7814C184.917 36.5904 185.327 36.4908 185.743 36.4908C186.16 36.4908 186.57 36.5904 186.94 36.7814C187.283 36.9675 187.569 37.243 187.768 37.5787C187.966 37.9305 188.071 38.3277 188.071 38.7316C188.071 39.1356 187.966 39.5328 187.768 39.8846C187.569 40.2203 187.283 40.4958 186.94 40.6818C186.571 40.8735 186.16 40.9736 185.743 40.9736C185.327 40.9736 184.916 40.8735 184.546 40.6818C184.204 40.4952 183.918 40.2198 183.719 39.8846C183.515 39.5355 183.41 39.1368 183.417 38.7322ZM184.178 38.7322C184.174 39.0142 184.244 39.2923 184.382 39.5383C184.514 39.7706 184.706 39.9629 184.938 40.0951C185.186 40.2288 185.463 40.2988 185.744 40.2988C186.025 40.2988 186.302 40.2288 186.55 40.0951C186.782 39.9626 186.974 39.7704 187.106 39.5383C187.24 39.2903 187.31 39.0129 187.31 38.7311C187.31 38.4493 187.24 38.1719 187.106 37.9238C186.974 37.6917 186.782 37.4995 186.55 37.3671C186.302 37.2334 186.025 37.1634 185.744 37.1634C185.463 37.1634 185.186 37.2334 184.938 37.3671C184.706 37.4991 184.514 37.6915 184.382 37.9238C184.243 38.1704 184.173 38.4494 184.178 38.7322Z" fill="#928A97"/>
<path d="M189.949 34.0791V40.9724H189.188V34.0825L189.949 34.0791Z" fill="#928A97"/>
<path d="M191.068 38.7322C191.061 38.3273 191.165 37.9282 191.37 37.5787C191.569 37.2433 191.854 36.9678 192.197 36.7814C192.567 36.5904 192.977 36.4908 193.394 36.4908C193.81 36.4908 194.221 36.5904 194.591 36.7814C194.933 36.9681 195.219 37.2435 195.418 37.5787C195.616 37.9308 195.72 38.3278 195.72 38.7316C195.72 39.1355 195.616 39.5325 195.418 39.8846C195.219 40.2198 194.933 40.4952 194.591 40.6818C194.221 40.8735 193.81 40.9736 193.394 40.9736C192.977 40.9736 192.567 40.8735 192.197 40.6818C191.854 40.4955 191.569 40.22 191.37 39.8846C191.165 39.5355 191.061 39.1368 191.068 38.7322ZM191.828 38.7322C191.824 39.014 191.894 39.292 192.031 39.5383C192.163 39.7705 192.356 39.9628 192.588 40.0951C192.835 40.2288 193.112 40.2988 193.393 40.2988C193.674 40.2988 193.951 40.2288 194.198 40.0951C194.43 39.9629 194.622 39.7706 194.755 39.5383C194.888 39.2903 194.958 39.0129 194.958 38.7311C194.958 38.4493 194.888 38.1719 194.755 37.9238C194.623 37.6915 194.43 37.4991 194.198 37.3671C193.951 37.2334 193.674 37.1634 193.393 37.1634C193.112 37.1634 192.835 37.2334 192.588 37.3671C192.355 37.4992 192.163 37.6916 192.031 37.9238C191.893 38.1707 191.823 38.4496 191.828 38.7322Z" fill="#928A97"/>
<path d="M198.784 40.9724C198.378 40.9789 197.978 40.8782 197.624 40.6807C197.288 40.4931 197.01 40.2175 196.819 39.8835C196.626 39.5298 196.525 39.1334 196.525 38.7305C196.525 38.3277 196.626 37.9312 196.819 37.5776C197.01 37.2436 197.288 36.9679 197.624 36.7803C197.978 36.5832 198.378 36.4829 198.784 36.4897C199.107 36.4862 199.426 36.5543 199.719 36.689C199.999 36.8165 200.247 37.0026 200.449 37.2346L200.489 36.4942H201.157V40.4792C201.168 40.9727 201.065 41.4622 200.857 41.91C200.666 42.3105 200.357 42.6438 199.973 42.8664C199.533 43.1076 199.036 43.2261 198.535 43.2093C198.236 43.2116 197.938 43.1653 197.654 43.0724C197.388 42.9856 197.137 42.8567 196.911 42.6905L197.278 42.0725C197.447 42.2199 197.641 42.3357 197.851 42.4143C198.074 42.4982 198.31 42.5401 198.548 42.5379C199.184 42.5379 199.655 42.3553 199.96 41.9901C200.265 41.6249 200.418 41.138 200.419 40.5293V40.2966C200.216 40.5104 199.97 40.6795 199.698 40.7932C199.409 40.9144 199.098 40.9754 198.784 40.9724ZM197.285 38.7311C197.281 39.0131 197.351 39.2912 197.489 39.5372C197.622 39.7693 197.814 39.9615 198.046 40.0939C198.293 40.2276 198.57 40.2976 198.851 40.2976C199.133 40.2976 199.41 40.2276 199.657 40.0939C199.889 39.9615 200.081 39.7693 200.214 39.5372C200.347 39.2892 200.417 39.0118 200.417 38.73C200.417 38.4482 200.347 38.1708 200.214 37.9227C200.081 37.6906 199.889 37.4983 199.657 37.366C199.41 37.2323 199.133 37.1623 198.851 37.1623C198.57 37.1623 198.293 37.2323 198.046 37.366C197.814 37.4983 197.621 37.6906 197.489 37.9227C197.35 38.1696 197.28 38.449 197.285 38.7322V38.7311Z" fill="#928A97"/>
<path d="M202.274 36.4953H203.075L204.264 39.3669C204.316 39.4893 204.366 39.6185 204.417 39.7543C204.468 39.8902 204.51 40.0193 204.546 40.1407H204.565C204.601 40.016 204.642 39.8902 204.69 39.7633C204.738 39.6363 204.79 39.5027 204.847 39.3624L206.036 36.4953H206.815L204.032 43.206H203.252L204.179 40.9691L202.274 36.4953Z" fill="#928A97"/>
<path d="M27.7314 33.2708C27.3491 33.067 26.9349 32.9296 26.5066 32.8644L23.9312 35.4754C23.5967 35.8104 23.4088 36.2646 23.4088 36.738C23.4088 37.2115 23.5967 37.6656 23.9312 38.0007L26.3964 40.5104C26.8337 40.4679 27.2627 40.3629 27.6702 40.1986L24.7608 37.1723C24.7035 37.1154 24.6581 37.0477 24.6271 36.9732C24.5961 36.8987 24.5802 36.8187 24.5802 36.738C24.5802 36.6573 24.5961 36.5774 24.6271 36.5029C24.6581 36.4284 24.7035 36.3607 24.7608 36.3038L27.7314 33.2708Z" fill="#283C63"/>
<path d="M31.477 40.1051C31.8594 40.3088 32.2735 40.4463 32.7018 40.5115L35.2761 37.9005C35.4424 37.7349 35.5744 37.5382 35.6644 37.3215C35.7545 37.1048 35.8008 36.8725 35.8008 36.6378C35.8008 36.4032 35.7545 36.1708 35.6644 35.9542C35.5744 35.7375 35.4424 35.5407 35.2761 35.3752L32.8121 32.8644C32.3747 32.9075 31.9458 33.0128 31.5383 33.1772L34.4466 36.2036C34.5038 36.2605 34.5492 36.3281 34.5802 36.4027C34.6112 36.4772 34.6272 36.5571 34.6272 36.6378C34.6272 36.7185 34.6112 36.7984 34.5802 36.873C34.5492 36.9475 34.5038 37.0151 34.4466 37.0721L31.477 40.1051Z" fill="#283C63"/>
<path d="M29.8419 32.7765L28.5197 40.3999L29.507 40.5712L30.8293 32.9477L29.8419 32.7765Z" fill="#283C63"/>
<path d="M35.6525 7.74175C40.732 10.1613 44.1146 13.3335 45.2069 15.194C44.6023 11.8537 41.0337 8.44322 39.0384 7.2574C37.9495 6.04932 40.2142 3.74672 41.2597 1.20918C41.2597 1.20918 36.0143 5.44026 35.6525 7.74175Z" fill="#FF5252"/>
<path d="M18.295 8.922C18.1836 9.21484 18.5299 9.46647 18.5299 9.46647L20.0954 8.79395C20.0954 8.79395 18.4108 8.6325 18.295 8.92422" fill="#FF5252"/>
<path d="M33.5046 22.8332H33.4868C33.2579 22.848 33.0301 22.8755 32.8043 22.9156C32.7041 22.9334 32.6016 22.9523 32.4925 22.9746C32.3422 23.0058 32.1963 23.0447 32.0471 23.0859C30.6912 23.4494 29.4972 24.2589 28.6578 25.3841C28.5465 25.5255 28.4351 25.6624 28.2959 25.8384C27.9552 23.8442 28.6801 22.1874 30.9682 19.7623C28.1512 18.9896 25.1783 19.3169 22.4637 18.1333C22.6146 17.7287 22.8239 17.3483 23.085 17.0043C23.6885 16.2071 24.5214 15.6682 25.4344 15.1938C24.2819 15.3861 23.2141 15.9212 22.3702 16.7293C21.9785 17.1052 21.6294 17.523 21.3291 17.9752C17.6849 16.1143 14.6522 13.2455 12.5919 9.71014C14.449 8.48194 16.4692 7.52022 18.5934 6.85305C21.9494 5.7644 25.5009 5.41308 29.0052 5.82311C29.5987 5.89326 30.0073 5.74851 30.4527 5.33876C33.3766 2.6665 36.8405 1.30476 40.7999 1.21012C40.9346 1.21012 41.0682 1.21012 41.2597 1.21012C36.6846 -2.0055 30.004 2.19886 28.5164 2.30018C24.2452 2.59413 19.8894 2.66093 15.6895 3.57284C13.5339 4.04272 11.3783 4.63841 9.37186 5.57147C7.34762 6.51122 4.76332 8.09788 4.74773 10.6432C4.72658 14.3543 7.68833 17.2971 10.3372 19.5073C16.7774 24.8775 23.7987 27.5675 31.8779 29.3891C35.8696 30.2888 41.331 32.7974 40.5371 37.446C39.7744 41.9109 32.8867 44.5531 28.3104 45.0831C27.7136 45.1521 23.0772 45.9249 22.8256 45.1043C22.0584 42.5879 21.465 39.9379 20.0676 37.6743C18.4275 35.0165 15.468 34.0478 12.6654 32.9833C14.2543 34.8762 15.5815 38.6251 15.5849 41.2228C15.5927 46.7054 9.43421 48.6261 5.14078 49.7117C3.54855 50.1147 1.66572 50.9298 1.14441e-05 50.5768C3.68551 51.3562 7.41999 52.1167 11.1845 51.9831C13.5094 51.9007 15.8499 51.4531 17.9843 50.5078C19.9351 49.6449 21.77 46.8056 23.8076 47.8712C31.7131 51.9976 44.4921 50.6169 47.9437 41.9087C51.8408 32.0825 42.6783 22.1106 33.5046 22.8321" fill="#FF5252"/>
</g>
<defs>
<clipPath id="clip0_2027_2362">
<rect width="206.944" height="52" fill="white"/>
</clipPath>
</defs>
</svg>
