<svg width="160" height="140" viewBox="0 0 160 140" fill="none" xmlns="http://www.w3.org/2000/svg">
<path d="M159.849 137.745L160 138.095C142.827 142.654 135.935 138.424 126.119 124.731C115.333 146.308 87.9516 140.74 82.0052 124.731C69.2826 146.03 44.1141 142.132 36.5082 124.731C26.7289 142.399 13.414 142.689 0 135.867C16.3055 102.489 19.8121 83.0923 18.8073 47.6093C24.3828 47.5008 28.2743 48.1737 35.2636 49.419C28.6575 45.5099 24.9306 44.0232 18.2541 42.3194C16.9677 25.7908 16.2362 16.5249 12.7226 0C91.8237 22.1341 111.184 57.7715 135.938 91.3207L107.035 93.6873L138.842 96.0538C148.753 112.056 152.769 121.353 159.849 137.745Z" fill="#4397FF"/>
</svg>
