<svg id="Layer_1" data-name="Layer 1" xmlns="http://www.w3.org/2000/svg" xmlns:xlink="http://www.w3.org/1999/xlink" viewBox="0 0 1858.6 467.02"><defs><style>.cls-1{fill:none;}.cls-2{fill:#283c63;}.cls-3{clip-path:url(#clip-path);}.cls-4{clip-path:url(#clip-path-2);}.cls-5{clip-path:url(#clip-path-3);}.cls-6{clip-path:url(#clip-path-4);}.cls-7{fill:#ff5252;}.cls-8{fill:#ff5252;}</style><clipPath id="clip-path" transform="translate(-67.4 -768.02)"><path class="cls-1" d="M1381.29,925.68q-8.55,7.47-8.55,42.62t8.88,43q8.89,7.71,51.38,7.71t52.25-7q8.28-5.93,8.28-32.25h-30.37q0,9-5,11.37T1433,993.55q-22.21,0-26-3.47t-3.85-21.64q0-18.39,3.85-21.82t26-3.43q19.86,0,25.51,2.89Q1463,948.42,1463,957h30.5q0-26.19-8.55-32.25-9.75-7.08-52-7.07-42.48,0-51.71,8"/></clipPath><clipPath id="clip-path-2" transform="translate(-67.4 -768.02)"><path class="cls-1" d="M1550.87,990.42q-4.35-3.13-4.35-22,0-19.07,4.35-22.16t30.53-3.09q26.05,0,30.4,3.09t4.35,22.16q0,18.84-4.35,22t-30.53,3.13q-26.05,0-30.4-3.13m-26.16-65q-8.55,7-8.55,43,0,26.19,2.76,34.34,3.57,10.62,17.1,13.79,10.79,2.43,45.25,2.43,47.13,0,56.48-7.54,8.7-7.08,8.69-43t-8.82-43.17q-9.36-7.59-56.35-7.6-47.2,0-56.56,7.73"/></clipPath><clipPath id="clip-path-3" transform="translate(-67.4 -768.02)"><path class="cls-1" d="M1695.93,944.6h49.49q9.76,0,13.23,5t3.47,18.83q0,13.66-3.47,18.61t-13.23,5h-49.49Zm-30.37-25.52v98.44h85q26.07,0,34.35-10.38,7.55-9.48,7.54-38.7,0-29.37-7.75-39.05-8.22-10.3-34.14-10.31Z"/></clipPath><clipPath id="clip-path-4" transform="translate(-67.4 -768.02)"><polygon class="cls-1" points="1819.82 919.08 1819.82 1017.65 1926 1017.65 1926 993.81 1850.19 993.81 1850.19 980.28 1922.56 980.28 1922.56 956.58 1850.19 956.58 1850.19 942.91 1926 942.91 1926 919.08 1819.82 919.08"/></clipPath></defs><title>final</title><path class="cls-2" d="M641.73,995.43q21.87,0,25.35-.67c2.31-.45,3.46-2.24,3.46-5.39,0-3.77-1.61-6.13-4.84-7.1s-11.23-1.45-24-1.45q-38,0-47.91-5.52T583.89,948q0-20.13,13-25.79,9.9-4.31,44.11-4.3,30.5,0,38.64,1.67,19.13,3.84,19.13,32.53h-30.3c0-5.25-1.15-8.31-3.44-9.15s-10.25-1.28-23.9-1.28-21.59.24-23.7.73-3.17,2.36-3.17,5.59c0,3.41,1.8,5.63,5.39,6.63s11,1.53,22.09,1.53q37.5,0,48.31,5.91t10.8,27.27q0,19.73-12.12,25.25-10.5,4.73-47.13,4.72-28.27,0-36.69-1.28-13-1.95-17.68-9t-4.68-24.66h30.37c0,5.54,1.19,8.75,3.57,9.68s10.79,1.37,25.25,1.37" transform="translate(-67.4 -768.02)"/><polygon class="cls-2" points="656.87 151.33 687.24 151.33 687.24 185.8 752.68 185.8 752.68 151.33 783.05 151.33 783.05 249.76 752.68 249.76 752.68 211.32 687.24 211.32 687.24 249.76 656.87 249.76 656.87 151.33"/><path class="cls-2" d="M918.26,919.21h52.11l48.82,98.45H983.77l-9.36-16.43H914.28l-9.42,16.43H869.44Zm28.41,22.16H942l-16.37,34.34H963Z" transform="translate(-67.4 -768.02)"/><path class="cls-2" d="M1035.55,919.07h88.27q16.22,0,23,5.94,7.28,6.45,7.28,22.75,0,12.66-3,18.72t-10.57,9.09q8.2,3.64,10.9,7.2t2.7,12.8v22.08h-30.3V1000a10.11,10.11,0,0,0-2.09-6.47q-2.62-3.49-7.88-3.5h-47.94v27.61h-30.36Zm30.36,25.53v20h48.68c3.28,0,5.63-.71,7.07-2.15s2.16-4,2.16-7.81-.74-6.38-2.22-7.85-3.82-2.18-7-2.18Z" transform="translate(-67.4 -768.02)"/><polygon class="cls-2" points="1115.66 151.2 1146.03 151.2 1146.03 185.67 1161.86 185.67 1196.19 151.2 1238.01 151.2 1188.72 198.06 1244.33 249.5 1200.3 249.5 1161.86 211.19 1146.03 211.19 1146.03 249.63 1115.66 249.63 1115.66 151.2"/><polygon class="cls-2" points="1298.33 149.25 1267.7 261.89 1252.42 261.89 1283.05 149.25 1298.33 149.25"/><path class="cls-2" d="M1381.29,925.67q-8.55,7.5-8.55,42.63,0,35.28,8.88,43T1433,1019q42.49,0,52.25-7,8.28-5.93,8.28-32.26h-30.36q0,9-5,11.38T1433,993.55q-22.21,0-26-3.47t-3.85-21.65q0-18.37,3.85-21.81t26-3.43q19.86,0,25.52,2.89Q1463,948.44,1463,957h30.5q0-26.19-8.55-32.25-9.76-7.07-52-7.07-42.48,0-51.71,8" transform="translate(-67.4 -768.02)"/><g class="cls-3"><rect class="cls-2" x="1305.34" y="149.65" width="120.79" height="101.33"/></g><g class="cls-4"><rect class="cls-2" x="1448.75" y="149.65" width="130.29" height="101.33"/></g><g class="cls-5"><rect class="cls-2" x="1598.16" y="151.06" width="126.86" height="98.43"/></g><g class="cls-6"><rect class="cls-2" x="1752.41" y="151.06" width="106.18" height="98.57"/></g><path class="cls-7" d="M607.62,1075.7V1136h-7V1075.7Z" transform="translate(-67.4 -768.02)"/><path class="cls-7" d="M615.65,1082.13v-6.43h44.2v6.43h-18.6V1136h-7v-53.84Z" transform="translate(-67.4 -768.02)"/><path class="cls-7" d="M689.1,1123.35a19.24,19.24,0,0,0,7,4.72,21.09,21.09,0,0,0,7.67,1.51,17.48,17.48,0,0,0,6.77-1.29,12.17,12.17,0,0,0,5-3.67,9,9,0,0,0,1.88-5.73,8.46,8.46,0,0,0-2-5.71,18,18,0,0,0-5.13-4q-3.15-1.71-6.69-3.28-2.92-1.32-5.82-2.79a29.66,29.66,0,0,1-5.25-3.37,14.83,14.83,0,0,1-3.75-4.53,13,13,0,0,1-1.41-6.26,13.81,13.81,0,0,1,2.57-8.4,16.44,16.44,0,0,1,6.93-5.36,24.33,24.33,0,0,1,9.71-1.87,33.7,33.7,0,0,1,7.35.86,35.09,35.09,0,0,1,7.59,2.71l-2.85,6a22.41,22.41,0,0,0-5.83-2.41,23.7,23.7,0,0,0-5.86-.76,15.8,15.8,0,0,0-8.74,2.33,8,8,0,0,0-1.79,11.81,16.75,16.75,0,0,0,4.82,3.65q3,1.58,6.35,3.1,3,1.36,6,2.89a31.18,31.18,0,0,1,5.5,3.54,15.74,15.74,0,0,1,4,4.76,13.51,13.51,0,0,1,1.51,6.57,15.48,15.48,0,0,1-2.76,9,18.88,18.88,0,0,1-7.49,6.27,24.54,24.54,0,0,1-10.77,2.29,29.65,29.65,0,0,1-9.36-1.57,28.08,28.08,0,0,1-8.76-4.86Z" transform="translate(-67.4 -768.02)"/><path class="cls-7" d="M733.13,1115.88a19.83,19.83,0,0,1,2.72-10.36,19.37,19.37,0,0,1,7.43-7.16,23.44,23.44,0,0,1,21.5,0,19.51,19.51,0,0,1,7.43,7.16,21.14,21.14,0,0,1,0,20.71,19.51,19.51,0,0,1-7.43,7.16,23.36,23.36,0,0,1-21.5,0,19.37,19.37,0,0,1-7.43-7.16A19.79,19.79,0,0,1,733.13,1115.88Zm6.83,0a14.35,14.35,0,0,0,1.83,7.24,13.37,13.37,0,0,0,5,5,15.2,15.2,0,0,0,14.46,0,13.34,13.34,0,0,0,5-5,15.28,15.28,0,0,0,0-14.5,13.31,13.31,0,0,0-5-5,15.2,15.2,0,0,0-14.46,0,13.34,13.34,0,0,0-5,5A14.29,14.29,0,0,0,740,1115.88Z" transform="translate(-67.4 -768.02)"/><path class="cls-7" d="M782.55,1101.81v-6h6.63v-7.27a12.91,12.91,0,0,1,3.38-9.29,11.59,11.59,0,0,1,8.76-3.53,12.64,12.64,0,0,1,7.83,2.57l-2.57,5.54a6.06,6.06,0,0,0-9-.15,7.21,7.21,0,0,0-1.75,5v7.15h10.77v6H795.81V1136h-6.63v-34.16Z" transform="translate(-67.4 -768.02)"/><path class="cls-7" d="M822.21,1095.79V1085h6.63v10.81h10.93v6H828.84v21q0,7.2,6.67,7.2a13.37,13.37,0,0,0,2.15-.18,7.69,7.69,0,0,0,2.11-.64v5.76a14.77,14.77,0,0,1-2.47.77,15.51,15.51,0,0,1-3.32.32q-5.7,0-8.74-3.27t-3-9.31v-21.62h-6.63v-6Z" transform="translate(-67.4 -768.02)"/><path class="cls-7" d="M847,1095.79h7l10,29.85,10-29.85h7.07L891.2,1126l10.08-30.17h6.79L894.61,1136h-6.79l.08-.25-10.36-30.93-10.25,30.65.16.53h-7Z" transform="translate(-67.4 -768.02)"/><path class="cls-7" d="M915.63,1123.23a11.4,11.4,0,0,1,4.68-9.58q4.68-3.56,12.63-3.56a34.67,34.67,0,0,1,10.57,1.65v-.42a8.74,8.74,0,0,0-3-7q-3-2.55-8.1-2.55a26.16,26.16,0,0,0-11.25,2.93l-2.41-5a37.52,37.52,0,0,1,7.35-3,26.79,26.79,0,0,1,7.07-.9q7.72,0,12.32,4.61t4.6,12.34V1136h-6l-.36-6.71a13.92,13.92,0,0,1-5.46,5,17.21,17.21,0,0,1-8,1.79q-6.54,0-10.63-3.54A11.67,11.67,0,0,1,915.63,1123.23Zm17.92-7.11q-5.24,0-8.16,1.87a6.21,6.21,0,0,0-.58,10.14,9.82,9.82,0,0,0,6.24,1.85,13.37,13.37,0,0,0,6.35-1.49,11.72,11.72,0,0,0,4.46-4,10.11,10.11,0,0,0,1.65-5.66v-1.09A31.83,31.83,0,0,0,933.55,1116.12Z" transform="translate(-67.4 -768.02)"/><path class="cls-7" d="M962.19,1136v-40.18h6l.4,7.36a16.14,16.14,0,0,1,5.18-5.37,13.76,13.76,0,0,1,7.6-2c1.2,0,2.46,0,3.78,0l-1,6.8a9.89,9.89,0,0,0-3.7-.8,10.19,10.19,0,0,0-8.59,4,15.78,15.78,0,0,0-3.06,9.89V1136Z" transform="translate(-67.4 -768.02)"/><path class="cls-7" d="M1030.22,1115.25v2.51H996.14a14.53,14.53,0,0,0,5.17,8.78,15.22,15.22,0,0,0,10,3.44,20.65,20.65,0,0,0,6.87-1.27,18.34,18.34,0,0,0,6.59-4.07l3.9,5a25.78,25.78,0,0,1-8.74,5,28.15,28.15,0,0,1-8.42,1.37,24.9,24.9,0,0,1-11.57-2.62,19.79,19.79,0,0,1-7.93-7.22,19.35,19.35,0,0,1-2.88-10.49,19.56,19.56,0,0,1,2.7-10.24,19.26,19.26,0,0,1,7.39-7.1,23.25,23.25,0,0,1,21.17-.08,18.62,18.62,0,0,1,7.19,6.92A19.36,19.36,0,0,1,1030.22,1115.25Zm-34.16-3.11h27.24a12.13,12.13,0,0,0-4.54-7.48,14,14,0,0,0-8.91-2.89,14.47,14.47,0,0,0-9.13,2.93A12.14,12.14,0,0,0,996.06,1112.14Z" transform="translate(-67.4 -768.02)"/><path class="cls-7" d="M1061.47,1123.35a19.36,19.36,0,0,0,7,4.72,21,21,0,0,0,7.67,1.51,17.52,17.52,0,0,0,6.77-1.29,12.14,12.14,0,0,0,5-3.67,9,9,0,0,0,1.89-5.73,8.47,8.47,0,0,0-2-5.71,18,18,0,0,0-5.12-4q-3.15-1.71-6.69-3.28-2.94-1.32-5.83-2.79a29.57,29.57,0,0,1-5.24-3.37,14.86,14.86,0,0,1-3.76-4.53,13.12,13.12,0,0,1-1.4-6.26,13.74,13.74,0,0,1,2.57-8.4,16.32,16.32,0,0,1,6.93-5.36,24.32,24.32,0,0,1,9.7-1.87,33.72,33.72,0,0,1,7.36.86,35.09,35.09,0,0,1,7.59,2.71l-2.85,6a22.41,22.41,0,0,0-5.83-2.41,23.77,23.77,0,0,0-5.87-.76,15.76,15.76,0,0,0-8.73,2.33,8,8,0,0,0-1.79,11.81,16.75,16.75,0,0,0,4.82,3.65q3,1.58,6.35,3.1c2,.91,4,1.87,6,2.89a31.27,31.27,0,0,1,5.51,3.54,15.88,15.88,0,0,1,4,4.76,13.51,13.51,0,0,1,1.5,6.57,15.48,15.48,0,0,1-2.75,9,18.88,18.88,0,0,1-7.49,6.27,24.54,24.54,0,0,1-10.77,2.29,29.55,29.55,0,0,1-9.36-1.57,27.86,27.86,0,0,1-8.76-4.86Z" transform="translate(-67.4 -768.02)"/><path class="cls-7" d="M1105.51,1115.88a19.92,19.92,0,0,1,2.71-10.36,19.47,19.47,0,0,1,7.44-7.16,23.42,23.42,0,0,1,21.49,0,19.37,19.37,0,0,1,7.43,7.16,21.07,21.07,0,0,1,0,20.71,19.37,19.37,0,0,1-7.43,7.16,23.34,23.34,0,0,1-21.49,0,19.47,19.47,0,0,1-7.44-7.16A19.88,19.88,0,0,1,1105.51,1115.88Zm6.83,0a14.35,14.35,0,0,0,1.83,7.24,13.34,13.34,0,0,0,5,5,15.22,15.22,0,0,0,14.47,0,13.41,13.41,0,0,0,5-5,15.28,15.28,0,0,0,0-14.5,13.39,13.39,0,0,0-5-5,15.22,15.22,0,0,0-14.47,0,13.31,13.31,0,0,0-5,5A14.29,14.29,0,0,0,1112.34,1115.88Z" transform="translate(-67.4 -768.02)"/><path class="cls-7" d="M1164.17,1074.09V1136h-6.83v-61.88Z" transform="translate(-67.4 -768.02)"/><path class="cls-7" d="M1182.86,1095.79v21.38a13.42,13.42,0,0,0,3.15,9.25,10.47,10.47,0,0,0,8.22,3.56,11.51,11.51,0,0,0,6.1-1.63,11.8,11.8,0,0,0,4.26-4.44,12.78,12.78,0,0,0,1.57-6.35v-21.77h6.63V1136h-6l-.36-6.85a16.25,16.25,0,0,1-13.54,6.89,15.88,15.88,0,0,1-14.52-8.68,19.51,19.51,0,0,1-2.15-9.3v-22.24Z" transform="translate(-67.4 -768.02)"/><path class="cls-7" d="M1229.86,1095.79V1085h6.63v10.81h10.93v6h-10.93v21q0,7.2,6.67,7.2a13.27,13.27,0,0,0,2.15-.18,7.69,7.69,0,0,0,2.11-.64v5.76a14.48,14.48,0,0,1-2.47.77,15.41,15.41,0,0,1-3.31.32q-5.72,0-8.74-3.27t-3-9.31v-21.62h-6.63v-6Z" transform="translate(-67.4 -768.02)"/><path class="cls-7" d="M1257.39,1080.32a4.5,4.5,0,0,1,1.3-3.32,4.44,4.44,0,0,1,3.28-1.3,4.54,4.54,0,0,1,3.33,1.3,4.64,4.64,0,0,1-3.33,7.94,4.39,4.39,0,0,1-3.28-1.33A4.49,4.49,0,0,1,1257.39,1080.32Zm1.28,55.65v-40.18h6.67V1136Z" transform="translate(-67.4 -768.02)"/><path class="cls-7" d="M1275.39,1115.88a19.82,19.82,0,0,1,2.71-10.36,19.44,19.44,0,0,1,7.43-7.16,23.44,23.44,0,0,1,21.5,0,19.51,19.51,0,0,1,7.43,7.16,21.14,21.14,0,0,1,0,20.71,19.51,19.51,0,0,1-7.43,7.16,23.36,23.36,0,0,1-21.5,0,19.44,19.44,0,0,1-7.43-7.16A19.79,19.79,0,0,1,1275.39,1115.88Zm6.83,0a14.44,14.44,0,0,0,1.82,7.24,13.37,13.37,0,0,0,5,5,15.2,15.2,0,0,0,14.46,0,13.34,13.34,0,0,0,5-5,15.28,15.28,0,0,0,0-14.5,13.31,13.31,0,0,0-5-5,15.2,15.2,0,0,0-14.46,0,13.34,13.34,0,0,0-5,5A14.39,14.39,0,0,0,1282.22,1115.88Z" transform="translate(-67.4 -768.02)"/><path class="cls-7" d="M1327.22,1136v-40.18h6l.36,7.17a17.32,17.32,0,0,1,5.83-5.3,15.61,15.61,0,0,1,7.72-1.91,15.87,15.87,0,0,1,14.52,8.67,19.64,19.64,0,0,1,2.15,9.31V1136h-6.63v-21.38a13.43,13.43,0,0,0-3.15-9.28,10.51,10.51,0,0,0-8.22-3.54,11.63,11.63,0,0,0-6.11,1.63,12,12,0,0,0-4.26,4.43,12.81,12.81,0,0,0-1.56,6.36V1136Z" transform="translate(-67.4 -768.02)"/><path class="cls-7" d="M1396.73,1119.2a13.71,13.71,0,0,1,1.5-6.51,18.25,18.25,0,0,1,4-5.06,38.36,38.36,0,0,1,5.4-4,41.93,41.93,0,0,1-4-7.5,19.17,19.17,0,0,1-1.49-7.18,13,13,0,0,1,1.79-6.81,12.7,12.7,0,0,1,4.9-4.69,14.42,14.42,0,0,1,7.05-1.71,12.5,12.5,0,0,1,9.26,3.53,12,12,0,0,1,3.52,8.86,14.52,14.52,0,0,1-3.5,9.55,34.73,34.73,0,0,1-8.8,7.4,95.14,95.14,0,0,0,7.5,7.8q4.16,3.89,8.49,7.41a47.12,47.12,0,0,0,4.54-7.57,67,67,0,0,0,3.46-8.63l6.07,1.87a81.61,81.61,0,0,1-4,9.48,54.57,54.57,0,0,1-5.3,8.56q2.92,2.25,5.64,4.16t5,3.43l-3.53,5.06q-2.37-1.63-5.19-3.69c-1.87-1.36-3.83-2.85-5.86-4.44a29.62,29.62,0,0,1-7.68,5.48,20.59,20.59,0,0,1-9.16,2,22,22,0,0,1-9.58-2.13,18.62,18.62,0,0,1-7.23-5.91A14.48,14.48,0,0,1,1396.73,1119.2Zm31.62,5.53q-4.62-3.75-9.14-8a95,95,0,0,1-8.18-8.63,20.36,20.36,0,0,0-5.12,4.59,9.7,9.7,0,0,0-2,6.17,9.9,9.9,0,0,0,1.72,5.78,11.52,11.52,0,0,0,4.59,3.85,14.12,14.12,0,0,0,6.18,1.36,15.06,15.06,0,0,0,6.35-1.38A22.12,22.12,0,0,0,1428.35,1124.73Zm-19.49-35.38a15,15,0,0,0,1.1,5.39,31.34,31.34,0,0,0,3,5.78,31.55,31.55,0,0,0,6.51-5.1,9.45,9.45,0,0,0,2.77-6.79,7,7,0,0,0-1.83-5.09,5.83,5.83,0,0,0-4.32-1.9,7.11,7.11,0,0,0-5,2.16A7.33,7.33,0,0,0,1408.86,1089.35Z" transform="translate(-67.4 -768.02)"/><path class="cls-7" d="M1476.64,1082.13v-6.43h44.2v6.43h-18.6V1136h-7v-53.84Z" transform="translate(-67.4 -768.02)"/><path class="cls-7" d="M1567.12,1115.25v2.51h-34.07a14.49,14.49,0,0,0,5.17,8.78,15.22,15.22,0,0,0,10,3.44,20.65,20.65,0,0,0,6.87-1.27,18.34,18.34,0,0,0,6.59-4.07l3.9,5a25.88,25.88,0,0,1-8.74,5,28.15,28.15,0,0,1-8.42,1.37,24.87,24.87,0,0,1-11.57-2.62,19.82,19.82,0,0,1-7.94-7.22,19.43,19.43,0,0,1-2.87-10.49,19.64,19.64,0,0,1,2.69-10.24,19.35,19.35,0,0,1,7.4-7.1,23.25,23.25,0,0,1,21.17-.08,18.69,18.69,0,0,1,7.19,6.92A19.35,19.35,0,0,1,1567.12,1115.25Zm-34.15-3.11h27.24a12.18,12.18,0,0,0-4.54-7.48,14,14,0,0,0-8.92-2.89,14.46,14.46,0,0,0-9.12,2.93A12.14,12.14,0,0,0,1533,1112.14Z" transform="translate(-67.4 -768.02)"/><path class="cls-7" d="M1610.24,1130.22a20.29,20.29,0,0,1-6.63,4.26,22.28,22.28,0,0,1-8.36,1.53,21.86,21.86,0,0,1-10.75-2.62,19.44,19.44,0,0,1-7.43-7.16,21.14,21.14,0,0,1,0-20.71,19.44,19.44,0,0,1,7.43-7.16,23.33,23.33,0,0,1,19.11-1,20.5,20.5,0,0,1,6.63,4.34l-4.62,4.67a13.35,13.35,0,0,0-4.54-3.35,14,14,0,0,0-5.83-1.2,14.18,14.18,0,0,0-7.23,1.83,13.34,13.34,0,0,0-5,5,15.35,15.35,0,0,0,0,14.5,13.37,13.37,0,0,0,5,5,14.18,14.18,0,0,0,7.23,1.83,14.78,14.78,0,0,0,5.83-1.13,13.64,13.64,0,0,0,4.54-3.09Z" transform="translate(-67.4 -768.02)"/><path class="cls-7" d="M1620.28,1136V1075.7h6.63v26.91a16.54,16.54,0,0,1,5.72-5,15.76,15.76,0,0,1,7.54-1.81,15.84,15.84,0,0,1,14.52,8.67,19.52,19.52,0,0,1,2.15,9.31V1136h-6.63v-21.38a13.43,13.43,0,0,0-3.15-9.28,10.48,10.48,0,0,0-8.22-3.54,11.6,11.6,0,0,0-6.1,1.63,11.84,11.84,0,0,0-4.26,4.43,12.71,12.71,0,0,0-1.57,6.36V1136Z" transform="translate(-67.4 -768.02)"/><path class="cls-7" d="M1668.9,1136v-40.18h6l.36,7.17a17.32,17.32,0,0,1,5.83-5.3,15.61,15.61,0,0,1,7.72-1.91,15.87,15.87,0,0,1,14.52,8.67,19.64,19.64,0,0,1,2.15,9.31V1136h-6.63v-21.38a13.43,13.43,0,0,0-3.15-9.28,10.51,10.51,0,0,0-8.22-3.54,11.63,11.63,0,0,0-6.11,1.63,12,12,0,0,0-4.26,4.43,12.81,12.81,0,0,0-1.56,6.36V1136Z" transform="translate(-67.4 -768.02)"/><path class="cls-7" d="M1714.7,1115.88a19.82,19.82,0,0,1,2.71-10.36,19.51,19.51,0,0,1,7.43-7.16,23.44,23.44,0,0,1,21.5,0,19.37,19.37,0,0,1,7.43,7.16,21.07,21.07,0,0,1,0,20.71,19.37,19.37,0,0,1-7.43,7.16,23.36,23.36,0,0,1-21.5,0,19.51,19.51,0,0,1-7.43-7.16A19.79,19.79,0,0,1,1714.7,1115.88Zm6.83,0a14.35,14.35,0,0,0,1.83,7.24,13.34,13.34,0,0,0,5,5,15.22,15.22,0,0,0,14.47,0,13.41,13.41,0,0,0,5-5,15.28,15.28,0,0,0,0-14.5,13.39,13.39,0,0,0-5-5,15.22,15.22,0,0,0-14.47,0,13.31,13.31,0,0,0-5,5A14.29,14.29,0,0,0,1721.53,1115.88Z" transform="translate(-67.4 -768.02)"/><path class="cls-7" d="M1773.36,1074.09V1136h-6.83v-61.88Z" transform="translate(-67.4 -768.02)"/><path class="cls-7" d="M1783.41,1115.88a19.82,19.82,0,0,1,2.71-10.36,19.44,19.44,0,0,1,7.43-7.16,23.44,23.44,0,0,1,21.5,0,19.51,19.51,0,0,1,7.43,7.16,21.14,21.14,0,0,1,0,20.71,19.51,19.51,0,0,1-7.43,7.16,23.36,23.36,0,0,1-21.5,0,19.44,19.44,0,0,1-7.43-7.16A19.79,19.79,0,0,1,1783.41,1115.88Zm6.83,0a14.44,14.44,0,0,0,1.82,7.24,13.37,13.37,0,0,0,5,5,15.2,15.2,0,0,0,14.46,0,13.34,13.34,0,0,0,5-5,15.28,15.28,0,0,0,0-14.5,13.31,13.31,0,0,0-5-5,15.2,15.2,0,0,0-14.46,0,13.34,13.34,0,0,0-5,5A14.39,14.39,0,0,0,1790.24,1115.88Z" transform="translate(-67.4 -768.02)"/><path class="cls-7" d="M1852.71,1136a20.73,20.73,0,0,1-10.42-2.62,19,19,0,0,1-7.23-7.16,21.63,21.63,0,0,1,0-20.71,19,19,0,0,1,7.23-7.16,20.72,20.72,0,0,1,10.42-2.61,19.6,19.6,0,0,1,8.4,1.79,19.25,19.25,0,0,1,6.55,4.9l.36-6.65h6v35.79a29,29,0,0,1-2.69,12.85,19.81,19.81,0,0,1-7.94,8.59,25.14,25.14,0,0,1-12.92,3.08,24.87,24.87,0,0,1-7.91-1.23,23.52,23.52,0,0,1-6.67-3.43l3.29-5.55a16.81,16.81,0,0,0,5.15,3.07,17.31,17.31,0,0,0,6.26,1.11q8.57,0,12.68-4.92t4.12-13.12v-2.09a19.05,19.05,0,0,1-6.47,4.46A20.75,20.75,0,0,1,1852.71,1136Zm-13.46-20.13a14.35,14.35,0,0,0,1.83,7.24,13.41,13.41,0,0,0,5,5,15.22,15.22,0,0,0,14.47,0,13.41,13.41,0,0,0,5-5,15.28,15.28,0,0,0,0-14.5,13.39,13.39,0,0,0-5-5,15.22,15.22,0,0,0-14.47,0,13.39,13.39,0,0,0-5,5A14.29,14.29,0,0,0,1839.25,1115.88Z" transform="translate(-67.4 -768.02)"/><path class="cls-7" d="M1884.05,1095.79h7.2l10.68,25.79c.46,1.1.91,2.26,1.37,3.48s.84,2.38,1.16,3.47h.17c.32-1.12.69-2.25,1.12-3.39s.9-2.34,1.41-3.6l10.68-25.75h7l-25,60.27h-7l8.32-20.09Z" transform="translate(-67.4 -768.02)"/><path class="cls-2" d="M316.46,1066.83a34.42,34.42,0,0,0-11-3.65l-23.13,23.45a16.05,16.05,0,0,0,0,22.68l22.14,22.54a41.26,41.26,0,0,0,11.44-2.8l-26.13-27.18a5.5,5.5,0,0,1,0-7.8Z" transform="translate(-67.4 -768.02)"/><path class="cls-2" d="M350.1,1128.21a34.4,34.4,0,0,0,11,3.65l23.12-23.45a16,16,0,0,0,0-22.68l-22.13-22.55a41.44,41.44,0,0,0-11.44,2.81l26.12,27.18a5.5,5.5,0,0,1,0,7.8Z" transform="translate(-67.4 -768.02)"/><rect class="cls-2" x="299.17" y="1092.92" width="69.49" height="9" transform="translate(-871.83 470.83) rotate(-80.16)"/><path class="cls-8" d="M387.6,837.55c45.62,21.73,76,50.22,85.81,66.93-5.43-30-37.48-60.63-55.4-71.28-9.78-10.85,10.56-31.53,19.95-54.32,0,0-47.11,38-50.36,58.67" transform="translate(-67.4 -768.02)"/><path class="cls-8" d="M231.71,848.15c-1,2.63,2.11,4.89,2.11,4.89L247.88,847s-15.13-1.45-16.17,1.17" transform="translate(-67.4 -768.02)"/><path class="cls-8" d="M368.31,973.09h-.16a55.84,55.84,0,0,0-6.13.74c-.9.16-1.82.33-2.8.53-1.35.28-2.66.63-4,1A56.1,56.1,0,0,0,324.78,996c-1,1.27-2,2.5-3.25,4.08-3.06-17.91,3.45-32.79,24-54.57-25.3-6.94-52-4-76.38-14.63a39.7,39.7,0,0,1,5.58-10.14c5.42-7.16,12.9-12,21.1-16.26a52.21,52.21,0,0,0-27.52,13.79,66.51,66.51,0,0,0-9.35,11.19,191.76,191.76,0,0,1-78.47-74.23,213.91,213.91,0,0,1,53.9-25.66,220.14,220.14,0,0,1,93.51-9.25c5.33.63,9-.67,13-4.35,26.26-24,57.37-36.23,92.93-37.08,1.21,0,2.41,0,4.13,0-41.09-28.88-101.09,8.88-114.45,9.79-38.36,2.64-77.48,3.24-115.2,11.43-19.36,4.22-38.72,9.57-56.74,17.95-18.18,8.44-41.39,22.69-41.53,45.55-.19,33.33,26.41,59.76,50.2,79.61,57.84,48.23,120.9,72.39,193.46,88.75,35.85,8.08,84.9,30.61,77.77,72.36-6.85,40.1-68.71,63.83-109.81,68.59-5.36.62-47,7.56-49.26.19-6.89-22.6-12.22-46.4-24.77-66.73-14.73-23.87-41.31-32.57-66.48-42.13,14.27,17,26.19,50.67,26.22,74,.07,49.24-55.24,66.49-93.8,76.24-14.3,3.62-31.21,10.94-46.17,7.77,33.1,7,66.64,13.83,100.45,12.63,20.88-.74,41.9-4.76,61.07-13.25,17.52-7.75,34-33.25,52.3-23.68,71,37.06,185.77,24.66,216.77-53.55,35-88.25-47.29-177.81-129.68-171.33" transform="translate(-67.4 -768.02)"/></svg>