<svg width="171" height="25" viewBox="0 0 171 25" fill="none" xmlns="http://www.w3.org/2000/svg">
<path d="M0.8125 22.6562L1.79688 18.8438C2.10938 19.1875 2.52604 19.5052 3.04688 19.7969C3.57812 20.0885 4.14583 20.3229 4.75 20.5C5.36458 20.6667 5.94271 20.75 6.48438 20.75C7.13021 20.75 7.63542 20.6302 8 20.3906C8.36458 20.1406 8.54688 19.8073 8.54688 19.3906C8.54688 19.0469 8.42188 18.7604 8.17188 18.5312C7.93229 18.2917 7.60417 18.0833 7.1875 17.9062C6.78125 17.7188 6.32812 17.5365 5.82812 17.3594C5.15104 17.099 4.45312 16.7969 3.73438 16.4531C3.02604 16.1094 2.42708 15.6406 1.9375 15.0469C1.44792 14.4531 1.20312 13.6667 1.20312 12.6875C1.20312 11.75 1.44792 10.9375 1.9375 10.25C2.42708 9.55208 3.11979 9.01562 4.01562 8.64062C4.91146 8.25521 5.95312 8.0625 7.14062 8.0625C9.06771 8.0625 10.9896 8.54688 12.9062 9.51562L11.6406 13.0625C11.3073 12.8021 10.8906 12.5625 10.3906 12.3438C9.89062 12.1146 9.375 11.9323 8.84375 11.7969C8.32292 11.6615 7.85417 11.5938 7.4375 11.5938C6.92708 11.5938 6.52604 11.6979 6.23438 11.9062C5.95312 12.1146 5.8125 12.401 5.8125 12.7656C5.8125 13.0365 5.91146 13.2812 6.10938 13.5C6.30729 13.7083 6.59896 13.9115 6.98438 14.1094C7.38021 14.2969 7.86458 14.5 8.4375 14.7188C9.14583 14.9792 9.85938 15.2917 10.5781 15.6562C11.3073 16.0104 11.9167 16.4896 12.4062 17.0938C12.9062 17.6875 13.1562 18.4792 13.1562 19.4688C13.1562 20.4375 12.8906 21.2865 12.3594 22.0156C11.8385 22.7448 11.099 23.3125 10.1406 23.7188C9.19271 24.1146 8.07812 24.3125 6.79688 24.3125C4.66146 24.3125 2.66667 23.7604 0.8125 22.6562ZM15.875 24V0.5625H20.3594V10.2188C21.4844 8.78125 23.099 8.0625 25.2031 8.0625C27.1719 8.0625 28.7083 8.67188 29.8125 9.89062C30.9167 11.099 31.4688 12.7917 31.4688 14.9688V24H26.9844V16.1562C26.9844 14.8542 26.6979 13.849 26.125 13.1406C25.5521 12.4323 24.75 12.0781 23.7188 12.0781C22.6667 12.0781 21.8438 12.4375 21.25 13.1562C20.6562 13.875 20.3594 14.875 20.3594 16.1562V24H15.875ZM48.9062 24H45L44.7656 22.1406C44.1927 22.8281 43.4844 23.3646 42.6406 23.75C41.7969 24.125 40.8698 24.3125 39.8594 24.3125C38.7656 24.3125 37.7917 24.1042 36.9375 23.6875C36.0833 23.2604 35.4115 22.6771 34.9219 21.9375C34.4323 21.1875 34.1875 20.3385 34.1875 19.3906C34.1875 18.3906 34.4531 17.5104 34.9844 16.75C35.5156 15.9896 36.2448 15.3958 37.1719 14.9688C38.1094 14.5312 39.1719 14.3125 40.3594 14.3125C41.0573 14.3125 41.7552 14.3906 42.4531 14.5469C43.1615 14.7031 43.8177 14.9219 44.4219 15.2031V14.7969C44.4219 14.1719 44.2448 13.6354 43.8906 13.1875C43.5469 12.7292 43.0677 12.375 42.4531 12.125C41.849 11.875 41.1719 11.75 40.4219 11.75C39.7031 11.75 38.9896 11.8646 38.2812 12.0938C37.5833 12.3229 36.9375 12.6667 36.3438 13.125L35.125 9.70312C36.1771 9.16146 37.2396 8.75521 38.3125 8.48438C39.3958 8.20312 40.4427 8.0625 41.4531 8.0625C42.974 8.0625 44.2917 8.36458 45.4062 8.96875C46.5208 9.5625 47.3802 10.4062 47.9844 11.5C48.599 12.5833 48.9062 13.8698 48.9062 15.3594V24ZM40.8438 20.8594C41.4375 20.8594 42.0052 20.7292 42.5469 20.4688C43.0885 20.2083 43.526 19.8542 43.8594 19.4062C44.2031 18.9583 44.3854 18.4635 44.4062 17.9219V17.8125C43.9479 17.5 43.4375 17.2604 42.875 17.0938C42.3229 16.9167 41.7604 16.8281 41.1875 16.8281C40.3333 16.8281 39.6354 17.0156 39.0938 17.3906C38.5521 17.7656 38.2812 18.25 38.2812 18.8438C38.2812 19.2292 38.3906 19.5781 38.6094 19.8906C38.8385 20.1927 39.1458 20.4323 39.5312 20.6094C39.9167 20.776 40.3542 20.8594 40.8438 20.8594ZM56.8906 24H52.4062V8.375H56.3125L56.4688 11.0781C56.9896 10.1302 57.6979 9.39062 58.5938 8.85938C59.4896 8.32812 60.5156 8.0625 61.6719 8.0625C62.0052 8.0625 62.3385 8.08854 62.6719 8.14062C63.0156 8.18229 63.3646 8.25 63.7188 8.34375L63.1562 12.375C62.4688 12.1771 61.8177 12.0781 61.2031 12.0781C60.3385 12.0781 59.5781 12.276 58.9219 12.6719C58.276 13.0573 57.776 13.599 57.4219 14.2969C57.0677 14.9844 56.8906 15.7917 56.8906 16.7188V24ZM70.2656 24H65.7812V0.5625H70.2656V14.9688L71.7969 13.125L76.2969 8.375H81.9062L75.2969 15.3281L82.6875 24H76.8906L72.2188 18.1406L70.2656 19.9219V24ZM113.406 21.5156C112.646 22.3906 111.714 23.0781 110.609 23.5781C109.505 24.0677 108.292 24.3125 106.969 24.3125C105.365 24.3125 103.927 23.9635 102.656 23.2656C101.396 22.5573 100.401 21.5885 99.6719 20.3594C98.9531 19.1302 98.5938 17.7396 98.5938 16.1875C98.5938 14.625 98.9531 13.2344 99.6719 12.0156C100.401 10.7865 101.396 9.82292 102.656 9.125C103.927 8.41667 105.365 8.0625 106.969 8.0625C108.281 8.0625 109.49 8.30729 110.594 8.79688C111.698 9.28646 112.63 9.96354 113.391 10.8281L110.75 13.5938C110.344 13.125 109.828 12.7604 109.203 12.5C108.589 12.2292 107.943 12.0938 107.266 12.0938C106.484 12.0938 105.786 12.2708 105.172 12.625C104.557 12.9688 104.073 13.4479 103.719 14.0625C103.365 14.6667 103.188 15.3646 103.188 16.1562C103.188 16.9583 103.365 17.6719 103.719 18.2969C104.073 18.9219 104.557 19.4115 105.172 19.7656C105.786 20.1094 106.484 20.2812 107.266 20.2812C107.943 20.2812 108.594 20.151 109.219 19.8906C109.844 19.6198 110.354 19.25 110.75 18.7812L113.406 21.5156ZM123.578 24.3125C121.974 24.3125 120.536 23.9635 119.266 23.2656C117.995 22.5573 116.995 21.5938 116.266 20.375C115.547 19.1458 115.188 17.75 115.188 16.1875C115.188 14.6354 115.547 13.25 116.266 12.0312C116.995 10.8021 117.995 9.83333 119.266 9.125C120.536 8.41667 121.974 8.0625 123.578 8.0625C125.182 8.0625 126.609 8.41667 127.859 9.125C129.12 9.83333 130.109 10.8021 130.828 12.0312C131.557 13.25 131.922 14.6354 131.922 16.1875C131.922 17.75 131.557 19.1458 130.828 20.375C130.109 21.5938 129.12 22.5573 127.859 23.2656C126.609 23.9635 125.182 24.3125 123.578 24.3125ZM123.562 20.2969C124.281 20.2969 124.922 20.1198 125.484 19.7656C126.057 19.401 126.505 18.9115 126.828 18.2969C127.161 17.6719 127.328 16.9583 127.328 16.1562C127.328 15.3854 127.161 14.6927 126.828 14.0781C126.505 13.4635 126.057 12.9792 125.484 12.625C124.922 12.2604 124.281 12.0781 123.562 12.0781C122.833 12.0781 122.182 12.2604 121.609 12.625C121.047 12.9792 120.599 13.4635 120.266 14.0781C119.943 14.6927 119.781 15.3854 119.781 16.1562C119.781 16.9583 119.943 17.6719 120.266 18.2969C120.599 18.9115 121.047 19.401 121.609 19.7656C122.182 20.1198 122.833 20.2969 123.562 20.2969ZM150.875 24H146.938L146.703 21.875C146.036 22.625 145.234 23.2188 144.297 23.6562C143.37 24.0938 142.354 24.3125 141.25 24.3125C139.823 24.3125 138.547 23.9635 137.422 23.2656C136.307 22.5573 135.427 21.5885 134.781 20.3594C134.135 19.1302 133.812 17.7396 133.812 16.1875C133.812 14.625 134.135 13.2344 134.781 12.0156C135.427 10.7865 136.307 9.82292 137.422 9.125C138.547 8.41667 139.823 8.0625 141.25 8.0625C142.271 8.0625 143.219 8.25 144.094 8.625C144.979 8.98958 145.745 9.5 146.391 10.1562V0.5625H150.875V24ZM142.406 20.2969C143.146 20.2969 143.812 20.1302 144.406 19.7969C145.01 19.4635 145.49 19.0104 145.844 18.4375C146.208 17.8542 146.391 17.1927 146.391 16.4531V15.8906C146.391 15.151 146.208 14.4948 145.844 13.9219C145.49 13.349 145.01 12.901 144.406 12.5781C143.812 12.2448 143.146 12.0781 142.406 12.0781C141.646 12.0781 140.964 12.2552 140.359 12.6094C139.755 12.9635 139.276 13.4531 138.922 14.0781C138.578 14.6927 138.406 15.3958 138.406 16.1875C138.406 16.9688 138.578 17.6719 138.922 18.2969C139.276 18.9115 139.755 19.401 140.359 19.7656C140.964 20.1198 141.646 20.2969 142.406 20.2969ZM169.078 22.25C167.141 23.625 165.021 24.3125 162.719 24.3125C161.01 24.3125 159.474 23.9479 158.109 23.2188C156.755 22.4792 155.682 21.4792 154.891 20.2188C154.109 18.9583 153.719 17.5365 153.719 15.9531C153.719 14.4427 154.073 13.0938 154.781 11.9062C155.5 10.7188 156.474 9.78125 157.703 9.09375C158.932 8.40625 160.328 8.0625 161.891 8.0625C163.505 8.0625 164.927 8.44271 166.156 9.20312C167.385 9.95312 168.344 11.0052 169.031 12.3594C169.719 13.7031 170.062 15.2604 170.062 17.0312V17.5312H158.547C158.734 18.1458 159.042 18.6875 159.469 19.1562C159.896 19.6146 160.427 19.9792 161.062 20.25C161.698 20.5208 162.427 20.6562 163.25 20.6562C164.844 20.6562 166.328 20.1406 167.703 19.1094L169.078 22.25ZM158.344 15.25H165.922C165.839 14.5729 165.625 13.9792 165.281 13.4688C164.948 12.9479 164.505 12.5417 163.953 12.25C163.411 11.9583 162.802 11.8125 162.125 11.8125C161.438 11.8125 160.823 11.9635 160.281 12.2656C159.75 12.5677 159.318 12.974 158.984 13.4844C158.651 13.9948 158.438 14.5833 158.344 15.25Z" fill="#283c63"/>
<path d="M87.4844 24.3125H83.25L93.2344 0.25H97.4531L87.4844 24.3125Z" fill="#FF7069"/>
</svg>
